<?xml version="1.0" encoding="utf-8"?>
<!-- Generator: Adobe Illustrator 23.0.6, SVG Export Plug-In . SVG Version: 6.00 Build 0)  -->
<svg version="1.1" id="Layer_1" xmlns="http://www.w3.org/2000/svg" xmlns:xlink="http://www.w3.org/1999/xlink" x="0px" y="0px"
	 viewBox="0 0 1126 340" style="enable-background:new 0 0 1126 340;" xml:space="preserve">
<style type="text/css">
	.st0{clip-path:url(#SVGID_2_);}
	.st1{fill:none;stroke:url(#SVGID_3_);stroke-miterlimit:10;}
	.st2{fill:none;stroke:url(#SVGID_4_);stroke-miterlimit:10;}
	.st3{fill:none;stroke:url(#SVGID_5_);stroke-miterlimit:10;}
	.st4{fill:none;stroke:url(#SVGID_6_);stroke-miterlimit:10;}
	.st5{fill:none;stroke:url(#SVGID_7_);stroke-miterlimit:10;}
	.st6{fill:none;stroke:url(#SVGID_8_);stroke-miterlimit:10;}
	.st7{fill:none;stroke:url(#SVGID_9_);stroke-miterlimit:10;}
	.st8{fill:none;stroke:url(#SVGID_10_);stroke-miterlimit:10;}
	.st9{fill:none;stroke:url(#SVGID_11_);stroke-miterlimit:10;}
	.st10{fill:none;stroke:url(#SVGID_12_);stroke-miterlimit:10;}
	.st11{fill:none;stroke:url(#SVGID_13_);stroke-miterlimit:10;}
	.st12{fill:none;stroke:url(#SVGID_14_);stroke-miterlimit:10;}
	.st13{fill:none;stroke:url(#SVGID_15_);stroke-miterlimit:10;}
	.st14{fill:none;stroke:url(#SVGID_16_);stroke-miterlimit:10;}
	.st15{fill:none;stroke:url(#SVGID_17_);stroke-miterlimit:10;}
	.st16{fill:none;stroke:url(#SVGID_18_);stroke-miterlimit:10;}
	.st17{fill:none;stroke:url(#SVGID_19_);stroke-miterlimit:10;}
	.st18{fill:none;stroke:url(#SVGID_20_);stroke-miterlimit:10;}
	.st19{fill:none;stroke:url(#SVGID_21_);stroke-miterlimit:10;}
	.st20{fill:none;stroke:url(#SVGID_22_);stroke-miterlimit:10;}
	.st21{fill:none;stroke:url(#SVGID_23_);stroke-miterlimit:10;}
	.st22{fill:none;stroke:url(#SVGID_24_);stroke-miterlimit:10;}
	.st23{fill:none;stroke:url(#SVGID_25_);stroke-miterlimit:10;}
	.st24{fill:none;stroke:url(#SVGID_26_);stroke-miterlimit:10;}
	.st25{fill:none;stroke:url(#SVGID_27_);stroke-miterlimit:10;}
	.st26{fill:none;stroke:url(#SVGID_28_);stroke-miterlimit:10;}
	.st27{fill:none;stroke:url(#SVGID_29_);stroke-miterlimit:10;}
	.st28{fill:none;stroke:url(#SVGID_30_);stroke-miterlimit:10;}
	.st29{fill:none;stroke:url(#SVGID_31_);stroke-miterlimit:10;}
	.st30{fill:none;stroke:url(#SVGID_32_);stroke-miterlimit:10;}
	.st31{fill:none;stroke:url(#SVGID_33_);stroke-miterlimit:10;}
	.st32{fill:none;stroke:url(#SVGID_34_);stroke-miterlimit:10;}
	.st33{fill:none;stroke:url(#SVGID_35_);stroke-miterlimit:10;}
	.st34{fill:none;stroke:url(#SVGID_36_);stroke-miterlimit:10;}
	.st35{fill:none;stroke:url(#SVGID_37_);stroke-miterlimit:10;}
	.st36{fill:none;stroke:url(#SVGID_38_);stroke-miterlimit:10;}
	.st37{fill:none;stroke:url(#SVGID_39_);stroke-miterlimit:10;}
	.st38{fill:none;stroke:url(#SVGID_40_);stroke-miterlimit:10;}
	.st39{fill:none;stroke:url(#SVGID_41_);stroke-miterlimit:10;}
	.st40{fill:none;stroke:url(#SVGID_42_);stroke-miterlimit:10;}
	.st41{fill:none;stroke:url(#SVGID_43_);stroke-miterlimit:10;}
	.st42{fill:none;stroke:url(#SVGID_44_);stroke-miterlimit:10;}
	.st43{fill:none;stroke:url(#SVGID_45_);stroke-miterlimit:10;}
	.st44{fill:none;stroke:url(#SVGID_46_);stroke-miterlimit:10;}
	.st45{fill:none;stroke:url(#SVGID_47_);stroke-miterlimit:10;}
	.st46{fill:none;stroke:url(#SVGID_48_);stroke-miterlimit:10;}
	.st47{fill:none;stroke:url(#SVGID_49_);stroke-miterlimit:10;}
	.st48{fill:none;stroke:url(#SVGID_50_);stroke-miterlimit:10;}
	.st49{fill:none;stroke:url(#SVGID_51_);stroke-miterlimit:10;}
	.st50{fill:none;stroke:url(#SVGID_52_);stroke-miterlimit:10;}
	.st51{fill:none;stroke:url(#SVGID_53_);stroke-miterlimit:10;}
	.st52{fill:none;stroke:url(#SVGID_54_);stroke-miterlimit:10;}
	.st53{fill:none;stroke:url(#SVGID_55_);stroke-miterlimit:10;}
	.st54{fill:none;stroke:url(#SVGID_56_);stroke-miterlimit:10;}
	.st55{fill:none;stroke:url(#SVGID_57_);stroke-miterlimit:10;}
	.st56{fill:none;stroke:url(#SVGID_58_);stroke-miterlimit:10;}
	.st57{fill:none;stroke:url(#SVGID_59_);stroke-miterlimit:10;}
	.st58{fill:none;stroke:url(#SVGID_60_);stroke-miterlimit:10;}
	.st59{fill:none;stroke:url(#SVGID_61_);stroke-miterlimit:10;}
	.st60{fill:none;stroke:url(#SVGID_62_);stroke-miterlimit:10;}
	.st61{fill:none;stroke:url(#SVGID_63_);stroke-miterlimit:10;}
	.st62{fill:none;stroke:url(#SVGID_64_);stroke-miterlimit:10;}
	.st63{fill:none;stroke:url(#SVGID_65_);stroke-miterlimit:10;}
	.st64{fill:none;stroke:url(#SVGID_66_);stroke-miterlimit:10;}
	.st65{fill:none;stroke:url(#SVGID_67_);stroke-miterlimit:10;}
	.st66{fill:none;stroke:url(#SVGID_68_);stroke-miterlimit:10;}
	.st67{fill:none;stroke:url(#SVGID_69_);stroke-miterlimit:10;}
	.st68{fill:none;stroke:url(#SVGID_70_);stroke-miterlimit:10;}
	.st69{fill:none;stroke:url(#SVGID_71_);stroke-miterlimit:10;}
	.st70{fill:none;stroke:url(#SVGID_72_);stroke-miterlimit:10;}
	.st71{fill:none;stroke:url(#SVGID_73_);stroke-miterlimit:10;}
	.st72{fill:none;stroke:url(#SVGID_74_);stroke-miterlimit:10;}
	.st73{fill:none;stroke:url(#SVGID_75_);stroke-miterlimit:10;}
	.st74{fill:none;stroke:url(#SVGID_76_);stroke-miterlimit:10;}
	.st75{fill:none;stroke:url(#SVGID_77_);stroke-miterlimit:10;}
	.st76{fill:none;stroke:url(#SVGID_78_);stroke-miterlimit:10;}
	.st77{fill:none;stroke:url(#SVGID_79_);stroke-miterlimit:10;}
	.st78{fill:none;stroke:url(#SVGID_80_);stroke-miterlimit:10;}
	.st79{fill:none;stroke:url(#SVGID_81_);stroke-miterlimit:10;}
	.st80{fill:none;stroke:url(#SVGID_82_);stroke-miterlimit:10;}
	.st81{fill:none;stroke:url(#SVGID_83_);stroke-miterlimit:10;}
	.st82{fill:none;stroke:url(#SVGID_84_);stroke-miterlimit:10;}
	.st83{fill:none;stroke:url(#SVGID_85_);stroke-miterlimit:10;}
	.st84{fill:none;stroke:url(#SVGID_86_);stroke-miterlimit:10;}
	.st85{fill:none;stroke:url(#SVGID_87_);stroke-miterlimit:10;}
	.st86{fill:none;stroke:url(#SVGID_88_);stroke-miterlimit:10;}
	.st87{fill:none;stroke:url(#SVGID_89_);stroke-miterlimit:10;}
	.st88{fill:none;stroke:url(#SVGID_90_);stroke-miterlimit:10;}
	.st89{fill:none;stroke:url(#SVGID_91_);stroke-miterlimit:10;}
	.st90{fill:none;stroke:url(#SVGID_92_);stroke-miterlimit:10;}
	.st91{fill:none;stroke:url(#SVGID_93_);stroke-miterlimit:10;}
	.st92{fill:none;stroke:url(#SVGID_94_);stroke-miterlimit:10;}
	.st93{fill:none;stroke:url(#SVGID_95_);stroke-miterlimit:10;}
	.st94{fill:none;stroke:url(#SVGID_96_);stroke-miterlimit:10;}
	.st95{fill:none;stroke:url(#SVGID_97_);stroke-miterlimit:10;}
	.st96{fill:none;stroke:url(#SVGID_98_);stroke-miterlimit:10;}
	.st97{fill:none;stroke:url(#SVGID_99_);stroke-miterlimit:10;}
	.st98{fill:none;stroke:url(#SVGID_100_);stroke-miterlimit:10;}
	.st99{fill:none;stroke:url(#SVGID_101_);stroke-miterlimit:10;}
	.st100{fill:none;stroke:url(#SVGID_102_);stroke-miterlimit:10;}
	.st101{fill:none;stroke:url(#SVGID_103_);stroke-miterlimit:10;}
	.st102{fill:none;stroke:url(#SVGID_104_);stroke-miterlimit:10;}
	.st103{fill:none;stroke:url(#SVGID_105_);stroke-miterlimit:10;}
	.st104{fill:none;stroke:url(#SVGID_106_);stroke-miterlimit:10;}
	.st105{fill:none;stroke:url(#SVGID_107_);stroke-miterlimit:10;}
	.st106{fill:none;stroke:url(#SVGID_108_);stroke-miterlimit:10;}
	.st107{fill:none;stroke:url(#SVGID_109_);stroke-miterlimit:10;}
	.st108{fill:none;stroke:url(#SVGID_110_);stroke-miterlimit:10;}
	.st109{fill:none;stroke:url(#SVGID_111_);stroke-miterlimit:10;}
	.st110{fill:none;stroke:url(#SVGID_112_);stroke-miterlimit:10;}
	.st111{fill:none;stroke:url(#SVGID_113_);stroke-miterlimit:10;}
	.st112{fill:none;stroke:url(#SVGID_114_);stroke-miterlimit:10;}
	.st113{fill:none;stroke:url(#SVGID_115_);stroke-miterlimit:10;}
	.st114{fill:none;stroke:url(#SVGID_116_);stroke-miterlimit:10;}
	.st115{fill:none;stroke:url(#SVGID_117_);stroke-miterlimit:10;}
	.st116{fill:none;stroke:url(#SVGID_118_);stroke-miterlimit:10;}
	.st117{fill:none;stroke:url(#SVGID_119_);stroke-miterlimit:10;}
	.st118{fill:none;stroke:url(#SVGID_120_);stroke-miterlimit:10;}
	.st119{fill:none;stroke:url(#SVGID_121_);stroke-miterlimit:10;}
	.st120{fill:none;stroke:url(#SVGID_122_);stroke-miterlimit:10;}
	.st121{fill:none;stroke:url(#SVGID_123_);stroke-miterlimit:10;}
	.st122{fill:none;stroke:url(#SVGID_124_);stroke-miterlimit:10;}
	.st123{fill:none;stroke:url(#SVGID_125_);stroke-miterlimit:10;}
	.st124{fill:none;stroke:url(#SVGID_126_);stroke-miterlimit:10;}
	.st125{fill:none;stroke:url(#SVGID_127_);stroke-miterlimit:10;}
	.st126{fill:none;stroke:url(#SVGID_128_);stroke-miterlimit:10;}
	.st127{fill:none;stroke:url(#SVGID_129_);stroke-miterlimit:10;}
	.st128{fill:none;stroke:url(#SVGID_130_);stroke-miterlimit:10;}
	.st129{fill:none;stroke:url(#SVGID_131_);stroke-miterlimit:10;}
	.st130{fill:none;stroke:url(#SVGID_132_);stroke-miterlimit:10;}
	.st131{fill:none;stroke:url(#SVGID_133_);stroke-miterlimit:10;}
	.st132{fill:none;stroke:url(#SVGID_134_);stroke-miterlimit:10;}
	.st133{fill:none;stroke:url(#SVGID_135_);stroke-miterlimit:10;}
	.st134{fill:none;stroke:url(#SVGID_136_);stroke-miterlimit:10;}
	.st135{fill:none;stroke:url(#SVGID_137_);stroke-miterlimit:10;}
	.st136{fill:none;stroke:url(#SVGID_138_);stroke-miterlimit:10;}
	.st137{fill:none;stroke:url(#SVGID_139_);stroke-miterlimit:10;}
	.st138{fill:none;stroke:url(#SVGID_140_);stroke-miterlimit:10;}
	.st139{fill:none;stroke:url(#SVGID_141_);stroke-miterlimit:10;}
	.st140{fill:none;stroke:url(#SVGID_142_);stroke-miterlimit:10;}
	.st141{fill:none;stroke:url(#SVGID_143_);stroke-miterlimit:10;}
	.st142{fill:none;stroke:url(#SVGID_144_);stroke-miterlimit:10;}
	.st143{fill:none;stroke:url(#SVGID_145_);stroke-miterlimit:10;}
	.st144{fill:none;stroke:url(#SVGID_146_);stroke-miterlimit:10;}
	.st145{fill:none;stroke:url(#SVGID_147_);stroke-miterlimit:10;}
	.st146{fill:none;stroke:url(#SVGID_148_);stroke-miterlimit:10;}
	.st147{fill:none;stroke:url(#SVGID_149_);stroke-miterlimit:10;}
	.st148{fill:none;stroke:url(#SVGID_150_);stroke-miterlimit:10;}
	.st149{fill:none;stroke:url(#SVGID_151_);stroke-miterlimit:10;}
	.st150{fill:none;stroke:url(#SVGID_152_);stroke-miterlimit:10;}
	.st151{fill:none;stroke:url(#SVGID_153_);stroke-miterlimit:10;}
	.st152{fill:none;stroke:url(#SVGID_154_);stroke-miterlimit:10;}
	.st153{fill:none;stroke:url(#SVGID_155_);stroke-miterlimit:10;}
	.st154{fill:none;stroke:url(#SVGID_156_);stroke-miterlimit:10;}
	.st155{fill:none;stroke:url(#SVGID_157_);stroke-miterlimit:10;}
	.st156{fill:none;stroke:url(#SVGID_158_);stroke-miterlimit:10;}
	.st157{fill:none;stroke:url(#SVGID_159_);stroke-miterlimit:10;}
	.st158{fill:none;stroke:url(#SVGID_160_);stroke-miterlimit:10;}
	.st159{fill:none;stroke:url(#SVGID_161_);stroke-miterlimit:10;}
	.st160{fill:none;stroke:url(#SVGID_162_);stroke-miterlimit:10;}
	.st161{fill:none;stroke:url(#SVGID_163_);stroke-miterlimit:10;}
	.st162{fill:none;stroke:url(#SVGID_164_);stroke-miterlimit:10;}
	.st163{fill:none;stroke:url(#SVGID_165_);stroke-miterlimit:10;}
</style>
<g>
	<defs>
		<rect id="SVGID_1_" x="0.14" y="0.48" width="1126.34" height="339.55"/>
	</defs>
	<clipPath id="SVGID_2_">
		<use xlink:href="#SVGID_1_"  style="overflow:visible;"/>
	</clipPath>
	<g class="st0">
		<linearGradient id="SVGID_3_" gradientUnits="userSpaceOnUse" x1="-214.4594" y1="116.0027" x2="1198.5414" y2="116.0027">
			<stop  offset="0" style="stop-color:#3EA0C2"/>
			<stop  offset="1" style="stop-color:#FFFFFF"/>
		</linearGradient>
		<path class="st1" d="M-214.39,109.08c164-21.47,331.94-12.49,492.72,26.35c131.96,31.87,262.61,72.4,398.35,74.3
			c125.83,1.77,339.49-152.17,521.77-187.49"/>
		<linearGradient id="SVGID_4_" gradientUnits="userSpaceOnUse" x1="-214.486" y1="117.2594" x2="1193.6801" y2="117.2594">
			<stop  offset="0" style="stop-color:#3EA0C2"/>
			<stop  offset="1" style="stop-color:#FFFFFF"/>
		</linearGradient>
		<path class="st2" d="M-214.42,111c163.01-21.32,329.93-12.45,489.76,26.03c131.18,31.58,261.05,71.78,395.93,73.92
			c62.83,1.23,147.07-35.22,238.24-77.33c92.8-42.83,192.14-91.69,284.08-110.09"/>
		<linearGradient id="SVGID_5_" gradientUnits="userSpaceOnUse" x1="-214.5127" y1="118.511" x2="1188.8175" y2="118.511">
			<stop  offset="0" style="stop-color:#3EA0C2"/>
			<stop  offset="1" style="stop-color:#FFFFFF"/>
		</linearGradient>
		<path class="st3" d="M-214.45,112.91c162.02-21.17,327.91-12.41,486.79,25.71c130.39,31.29,259.51,70.67,393.51,73.54
			c63.23,1.36,147.67-33.87,238.88-75.81c93.08-42.73,191.89-92.76,283.98-111.54"/>
		<linearGradient id="SVGID_6_" gradientUnits="userSpaceOnUse" x1="-214.5393" y1="119.766" x2="1183.9557" y2="119.766">
			<stop  offset="0" style="stop-color:#3EA0C2"/>
			<stop  offset="1" style="stop-color:#FFFFFF"/>
		</linearGradient>
		<path class="st4" d="M-214.47,114.82c161.04-21.02,325.9-12.37,483.83,25.4c129.61,30.99,257.96,69.81,391.09,73.16
			c63.64,1.6,148.26-32.51,239.52-74.29c93.36-42.62,191.67-93.72,283.88-113"/>
		<linearGradient id="SVGID_7_" gradientUnits="userSpaceOnUse" x1="-214.5659" y1="121.0215" x2="1179.0938" y2="121.0215">
			<stop  offset="0" style="stop-color:#3EA0C2"/>
			<stop  offset="1" style="stop-color:#FFFFFF"/>
		</linearGradient>
		<path class="st5" d="M-214.5,116.73c160.05-20.88,323.89-12.33,480.87,25.08c128.83,30.7,256.41,68.97,388.67,72.77
			c64.04,1.84,148.85-31.16,240.17-72.76c93.64-42.52,191.44-94.68,283.78-114.45"/>
		<linearGradient id="SVGID_8_" gradientUnits="userSpaceOnUse" x1="-214.5926" y1="122.2779" x2="1174.2318" y2="122.2779">
			<stop  offset="0" style="stop-color:#3EA0C2"/>
			<stop  offset="1" style="stop-color:#FFFFFF"/>
		</linearGradient>
		<path class="st6" d="M-214.53,118.64c159.06-20.73,321.87-12.29,477.9,24.76c128.05,30.4,254.86,68.14,386.26,72.39
			c64.45,2.09,149.45-29.81,240.81-71.24c93.92-42.42,191.22-95.63,283.68-115.91"/>
		<linearGradient id="SVGID_9_" gradientUnits="userSpaceOnUse" x1="-214.6192" y1="123.5351" x2="1169.3699" y2="123.5351">
			<stop  offset="0" style="stop-color:#3EA0C2"/>
			<stop  offset="1" style="stop-color:#FFFFFF"/>
		</linearGradient>
		<path class="st7" d="M-214.55,120.55C-56.49,99.97,105.31,108.31,260.39,145c127.27,30.11,253.31,67.31,383.84,72.01
			c64.85,2.33,150.04-28.45,241.45-69.72c94.2-42.32,190.99-96.58,283.58-117.36"/>
		<linearGradient id="SVGID_10_" gradientUnits="userSpaceOnUse" x1="-214.6458" y1="124.7934" x2="1164.5079" y2="124.7934">
			<stop  offset="0" style="stop-color:#3EA0C2"/>
			<stop  offset="1" style="stop-color:#FFFFFF"/>
		</linearGradient>
		<path class="st8" d="M-214.58,122.46c157.08-20.43,317.85-12.2,471.98,24.13c126.49,29.82,251.77,66.5,381.42,71.63
			c65.26,2.58,150.63-27.1,242.1-68.19c94.48-42.21,190.76-97.53,283.48-118.82"/>
		<linearGradient id="SVGID_11_" gradientUnits="userSpaceOnUse" x1="-214.6725" y1="126.0543" x2="1159.6461" y2="126.0543">
			<stop  offset="0" style="stop-color:#3EA0C2"/>
			<stop  offset="1" style="stop-color:#FFFFFF"/>
		</linearGradient>
		<path class="st9" d="M-214.61,124.37c156.09-20.29,315.83-12.16,469.01,23.81c125.7,29.52,250.22,65.69,379,71.25
			c65.67,2.83,151.23-25.74,242.74-66.67c94.76-42.11,190.54-98.47,283.38-120.27"/>
		<linearGradient id="SVGID_12_" gradientUnits="userSpaceOnUse" x1="-214.6991" y1="127.3153" x2="1154.7842" y2="127.3153">
			<stop  offset="0" style="stop-color:#3EA0C2"/>
			<stop  offset="1" style="stop-color:#FFFFFF"/>
		</linearGradient>
		<path class="st10" d="M-214.63,126.27c155.1-20.14,313.82-12.12,466.05,23.49c124.92,29.23,248.68,64.89,376.58,70.86
			c66.08,3.08,151.82-24.39,243.38-65.15c95.04-42.01,190.31-99.42,283.29-121.73"/>
		<linearGradient id="SVGID_13_" gradientUnits="userSpaceOnUse" x1="-214.7257" y1="128.641" x2="1149.9222" y2="128.641">
			<stop  offset="0" style="stop-color:#3EA0C2"/>
			<stop  offset="1" style="stop-color:#FFFFFF"/>
		</linearGradient>
		<path class="st11" d="M-214.66,128.24c154.11-19.99,311.81-12.08,463.09,23.17c124.14,28.93,247.13,64.1,374.16,70.48
			c66.49,3.34,152.41-23.03,244.03-63.63c95.31-41.91,190.08-100.36,283.19-123.18"/>
		<linearGradient id="SVGID_14_" gradientUnits="userSpaceOnUse" x1="-214.7523" y1="130.1522" x2="1145.0603" y2="130.1522">
			<stop  offset="0" style="stop-color:#3EA0C2"/>
			<stop  offset="1" style="stop-color:#FFFFFF"/>
		</linearGradient>
		<path class="st12" d="M-214.69,130.39c153.12-19.84,309.79-12.04,460.13,22.85c123.36,28.64,245.59,63.32,371.74,70.1
			c66.9,3.59,153.01-21.68,244.67-62.1c95.59-41.8,189.85-101.3,283.09-124.64"/>
		<linearGradient id="SVGID_15_" gradientUnits="userSpaceOnUse" x1="-214.779" y1="131.6736" x2="1140.1984" y2="131.6736">
			<stop  offset="0" style="stop-color:#3EA0C2"/>
			<stop  offset="1" style="stop-color:#FFFFFF"/>
		</linearGradient>
		<path class="st13" d="M-214.71,132.55c152.13-19.7,307.78-12,457.16,22.54c122.58,28.35,244.05,62.55,369.32,69.72
			c67.31,3.85,153.6-20.33,245.32-60.58c95.87-41.7,189.63-102.23,282.99-126.09"/>
		<linearGradient id="SVGID_16_" gradientUnits="userSpaceOnUse" x1="-214.8056" y1="133.2057" x2="1135.3364" y2="133.2057">
			<stop  offset="0" style="stop-color:#3EA0C2"/>
			<stop  offset="1" style="stop-color:#FFFFFF"/>
		</linearGradient>
		<path class="st14" d="M-214.74,134.71c151.14-19.55,305.77-11.96,454.2,22.22c121.8,28.05,242.51,61.78,366.91,69.34
			c67.72,4.11,154.19-18.97,245.96-59.06c96.15-41.6,189.4-103.17,282.89-127.55"/>
		<linearGradient id="SVGID_17_" gradientUnits="userSpaceOnUse" x1="-214.8322" y1="134.7429" x2="1130.4745" y2="134.7429">
			<stop  offset="0" style="stop-color:#3EA0C2"/>
			<stop  offset="1" style="stop-color:#FFFFFF"/>
		</linearGradient>
		<path class="st15" d="M-214.77,136.87c150.16-19.4,303.75-11.92,451.24,21.9c121.01,27.76,240.96,61.03,364.49,68.95
			c68.13,4.37,154.79-17.62,246.6-57.53c96.43-41.5,189.17-104.1,282.79-129"/>
		<linearGradient id="SVGID_18_" gradientUnits="userSpaceOnUse" x1="-214.8588" y1="136.2968" x2="1125.6125" y2="136.2968">
			<stop  offset="0" style="stop-color:#3EA0C2"/>
			<stop  offset="1" style="stop-color:#FFFFFF"/>
		</linearGradient>
		<path class="st16" d="M-214.79,139.05c149.17-19.25,301.74-11.88,448.27,21.58c120.23,27.47,239.42,60.28,362.07,68.57
			c68.55,4.64,155.38-16.26,247.25-56.01c96.71-41.39,188.94-105.02,282.69-130.46"/>
		<linearGradient id="SVGID_19_" gradientUnits="userSpaceOnUse" x1="-214.8855" y1="121.8358" x2="1557.0862" y2="121.8358">
			<stop  offset="0" style="stop-color:#3EA0C2"/>
			<stop  offset="1" style="stop-color:#FFFFFF"/>
		</linearGradient>
		<path class="st17" d="M-214.82,141.23c148.18-19.11,299.73-11.84,445.31,21.27c119.45,27.17,237.88,59.53,359.65,68.19
			c68.96,4.9,155.89-15.1,247.89-54.49c96.9-41.49,188.71-105.95,282.59-131.91c166.02-45.91,316.6-40.67,436.29,4.25"/>
		<linearGradient id="SVGID_20_" gradientUnits="userSpaceOnUse" x1="-214.9121" y1="123.2001" x2="1551.7572" y2="123.2001">
			<stop  offset="0" style="stop-color:#3EA0C2"/>
			<stop  offset="1" style="stop-color:#FFFFFF"/>
		</linearGradient>
		<path class="st18" d="M-214.85,143.42c147.19-18.96,297.71-11.8,442.35,20.95c118.67,26.88,236.34,58.8,357.23,67.81
			c69.38,5.17,156.48-13.75,248.53-52.97c97.18-41.4,188.48-106.87,282.49-133.37c165.21-46.56,315.96-41.06,435.83,3.95"/>
		<linearGradient id="SVGID_21_" gradientUnits="userSpaceOnUse" x1="-214.9387" y1="124.5781" x2="1546.4282" y2="124.5781">
			<stop  offset="0" style="stop-color:#3EA0C2"/>
			<stop  offset="1" style="stop-color:#FFFFFF"/>
		</linearGradient>
		<path class="st19" d="M-214.87,145.61c146.2-18.81,295.7-11.76,439.38,20.63c117.89,26.58,234.8,58.07,354.81,67.43
			c69.79,5.44,157.07-12.41,249.18-51.44c97.45-41.3,188.25-107.79,282.39-134.82c164.41-47.2,315.31-41.45,435.36,3.66"/>
		<linearGradient id="SVGID_22_" gradientUnits="userSpaceOnUse" x1="-214.9653" y1="125.9703" x2="1541.0992" y2="125.9703">
			<stop  offset="0" style="stop-color:#3EA0C2"/>
			<stop  offset="1" style="stop-color:#FFFFFF"/>
		</linearGradient>
		<path class="st20" d="M-214.9,147.82c145.21-18.66,293.69-11.72,436.42,20.31c117.11,26.29,233.26,57.35,352.39,67.04
			c70.21,5.71,157.66-11.06,249.82-49.92c97.73-41.21,188.02-108.71,282.29-136.28c163.6-47.84,314.67-41.84,434.9,3.36"/>
		<linearGradient id="SVGID_23_" gradientUnits="userSpaceOnUse" x1="-214.9919" y1="127.3771" x2="1535.7703" y2="127.3771">
			<stop  offset="0" style="stop-color:#3EA0C2"/>
			<stop  offset="1" style="stop-color:#FFFFFF"/>
		</linearGradient>
		<path class="st21" d="M-214.93,150.02c144.22-18.52,291.67-11.68,433.46,20c116.32,26,231.72,56.64,349.98,66.66
			c70.62,5.98,158.26-9.71,250.46-48.4c98-41.11,187.79-109.63,282.19-137.73c162.8-48.47,314.03-42.23,434.43,3.07"/>
		<linearGradient id="SVGID_24_" gradientUnits="userSpaceOnUse" x1="-215.0186" y1="128.7987" x2="1530.4413" y2="128.7987">
			<stop  offset="0" style="stop-color:#3EA0C2"/>
			<stop  offset="1" style="stop-color:#FFFFFF"/>
		</linearGradient>
		<path class="st22" d="M-214.95,152.24c143.23-18.37,289.66-11.64,430.49,19.68c115.54,25.7,230.18,55.93,347.56,66.28
			c71.04,6.26,158.85-8.37,251.11-46.87c98.28-41.02,187.56-110.54,282.09-139.19c162-49.1,313.38-42.62,433.97,2.77"/>
		<linearGradient id="SVGID_25_" gradientUnits="userSpaceOnUse" x1="-215.0452" y1="130.2351" x2="1525.1124" y2="130.2351">
			<stop  offset="0" style="stop-color:#3EA0C2"/>
			<stop  offset="1" style="stop-color:#FFFFFF"/>
		</linearGradient>
		<path class="st23" d="M-214.98,154.46c142.24-18.22,287.65-11.6,427.53,19.36c114.76,25.41,228.64,55.23,345.14,65.9
			c71.45,6.54,159.44-7.02,251.75-45.35C908,153.44,996.77,82.92,1091.43,53.72c161.2-49.71,312.74-43.01,433.5,2.48"/>
		<linearGradient id="SVGID_26_" gradientUnits="userSpaceOnUse" x1="-215.0718" y1="131.6875" x2="1519.7834" y2="131.6875">
			<stop  offset="0" style="stop-color:#3EA0C2"/>
			<stop  offset="1" style="stop-color:#FFFFFF"/>
		</linearGradient>
		<path class="st24" d="M-215.01,156.68c141.25-18.07,285.63-11.56,424.57,19.04c113.98,25.11,227.1,54.54,342.72,65.52
			c71.87,6.82,160.03-5.67,252.39-43.83c98.83-40.83,187.1-112.35,281.89-142.1c160.39-50.33,312.1-43.4,433.04,2.18"/>
		<linearGradient id="SVGID_27_" gradientUnits="userSpaceOnUse" x1="-215.0984" y1="133.1567" x2="1514.4545" y2="133.1567">
			<stop  offset="0" style="stop-color:#3EA0C2"/>
			<stop  offset="1" style="stop-color:#FFFFFF"/>
		</linearGradient>
		<path class="st25" d="M-215.04,158.91c140.27-17.93,283.62-11.52,421.61,18.73c113.2,24.82,225.56,53.86,340.3,65.13
			c72.29,7.1,160.62-4.32,253.04-42.31c99.11-40.73,186.88-113.26,281.79-143.55c159.59-50.93,311.46-43.79,432.58,1.89"/>
		<linearGradient id="SVGID_28_" gradientUnits="userSpaceOnUse" x1="-215.125" y1="134.6432" x2="1509.1255" y2="134.6432">
			<stop  offset="0" style="stop-color:#3EA0C2"/>
			<stop  offset="1" style="stop-color:#FFFFFF"/>
		</linearGradient>
		<path class="st26" d="M-215.06,161.15c139.28-17.78,281.61-11.48,418.64,18.41C316,204.09,427.6,232.74,541.46,244.31
			c72.7,7.39,161.21-2.97,253.68-40.78c99.39-40.64,186.65-114.16,281.69-145.01c158.79-51.54,310.81-44.18,432.11,1.59"/>
		<linearGradient id="SVGID_29_" gradientUnits="userSpaceOnUse" x1="-215.1516" y1="136.1477" x2="1503.7965" y2="136.1477">
			<stop  offset="0" style="stop-color:#3EA0C2"/>
			<stop  offset="1" style="stop-color:#FFFFFF"/>
		</linearGradient>
		<path class="st27" d="M-215.09,163.39c138.29-17.63,279.6-11.44,415.68,18.09c111.63,24.23,222.48,52.5,335.46,64.37
			c73.12,7.68,161.8-1.62,254.32-39.26c99.66-40.54,186.42-115.06,281.6-146.46c157.99-52.13,310.17-44.57,431.65,1.3"/>
		<linearGradient id="SVGID_30_" gradientUnits="userSpaceOnUse" x1="-215.1782" y1="137.6708" x2="1498.4675" y2="137.6708">
			<stop  offset="0" style="stop-color:#3EA0C2"/>
			<stop  offset="1" style="stop-color:#FFFFFF"/>
		</linearGradient>
		<path class="st28" d="M-215.12,165.64c137.3-17.48,277.58-11.4,412.72,17.77c110.85,23.94,220.94,51.84,333.04,63.99
			c73.54,7.97,162.4-0.28,254.97-37.74c99.94-40.44,186.19-115.95,281.5-147.92c157.2-52.72,309.53-44.96,431.18,1"/>
		<linearGradient id="SVGID_31_" gradientUnits="userSpaceOnUse" x1="-215.2048" y1="139.2131" x2="1493.1385" y2="139.2131">
			<stop  offset="0" style="stop-color:#3EA0C2"/>
			<stop  offset="1" style="stop-color:#FFFFFF"/>
		</linearGradient>
		<path class="st29" d="M-215.14,167.9c136.31-17.33,275.57-11.36,409.75,17.46c110.07,23.64,219.4,51.18,330.63,63.6
			c73.95,8.26,162.99,1.07,255.61-36.21C881.07,172.4,966.81,95.9,1062.25,63.37c156.4-53.31,308.88-45.35,430.72,0.71"/>
		<linearGradient id="SVGID_32_" gradientUnits="userSpaceOnUse" x1="-215.2315" y1="140.7752" x2="1487.8096" y2="140.7752">
			<stop  offset="0" style="stop-color:#3EA0C2"/>
			<stop  offset="1" style="stop-color:#FFFFFF"/>
		</linearGradient>
		<path class="st30" d="M-215.17,170.16c135.32-17.19,273.56-11.32,406.79,17.14c109.29,23.35,217.86,50.52,328.21,63.22
			c74.37,8.56,163.58,2.43,256.26-34.69C876.58,175.58,961.82,98.09,1057.38,65c155.61-53.88,308.24-45.74,430.25,0.41"/>
		<linearGradient id="SVGID_33_" gradientUnits="userSpaceOnUse" x1="-215.2581" y1="142.3576" x2="1482.4807" y2="142.3576">
			<stop  offset="0" style="stop-color:#3EA0C2"/>
			<stop  offset="1" style="stop-color:#FFFFFF"/>
		</linearGradient>
		<path class="st31" d="M-215.2,172.42c134.33-17.04,271.54-11.28,403.83,16.82c108.51,23.06,216.32,49.87,325.79,62.84
			c74.79,8.86,164.17,3.78,256.9-33.17c100.77-40.15,185.51-118.62,281.2-152.28c154.81-54.46,307.6-46.13,429.79,0.11"/>
		<linearGradient id="SVGID_34_" gradientUnits="userSpaceOnUse" x1="-215.2847" y1="143.9608" x2="1477.1517" y2="143.9608">
			<stop  offset="0" style="stop-color:#3EA0C2"/>
			<stop  offset="1" style="stop-color:#FFFFFF"/>
		</linearGradient>
		<path class="st32" d="M-215.22,174.69c133.34-16.89,269.53-11.24,400.86,16.5c107.72,22.76,214.78,49.23,323.37,62.46
			c75.21,9.16,164.77,5.13,257.54-31.65c101.05-40.05,185.29-119.51,281.1-153.74c154.02-55.03,306.96-46.52,429.32-0.18"/>
		<linearGradient id="SVGID_35_" gradientUnits="userSpaceOnUse" x1="-215.3113" y1="145.5851" x2="1471.8228" y2="145.5851">
			<stop  offset="0" style="stop-color:#3EA0C2"/>
			<stop  offset="1" style="stop-color:#FFFFFF"/>
		</linearGradient>
		<path class="st33" d="M-215.25,176.97c132.35-16.74,267.52-11.2,397.9,16.19c106.94,22.47,213.23,48.59,320.95,62.08
			c75.62,9.47,165.36,6.48,258.19-30.12c101.33-39.95,185.06-120.39,281-155.19c153.23-55.59,306.31-46.91,428.86-0.48"/>
		<linearGradient id="SVGID_36_" gradientUnits="userSpaceOnUse" x1="-215.3379" y1="147.2309" x2="1466.4938" y2="147.2309">
			<stop  offset="0" style="stop-color:#3EA0C2"/>
			<stop  offset="1" style="stop-color:#FFFFFF"/>
		</linearGradient>
		<path class="st34" d="M-215.28,179.25c131.36-16.6,265.5-11.16,394.94,15.87c106.16,22.18,211.69,47.96,318.53,61.69
			c76.04,9.77,165.95,7.83,258.83-28.6c101.61-39.85,184.84-121.27,280.9-156.65c152.44-56.15,305.67-47.3,428.39-0.77"/>
		<linearGradient id="SVGID_37_" gradientUnits="userSpaceOnUse" x1="-215.3645" y1="148.8985" x2="1461.1648" y2="148.8985">
			<stop  offset="0" style="stop-color:#3EA0C2"/>
			<stop  offset="1" style="stop-color:#FFFFFF"/>
		</linearGradient>
		<path class="st35" d="M-215.3,181.53c130.37-16.45,263.49-11.12,391.97,15.55c105.38,21.88,210.15,47.34,316.11,61.31
			c76.46,10.08,166.54,9.18,259.47-27.08c101.89-39.75,184.62-122.14,280.8-158.1c151.65-56.7,305.03-47.69,427.93-1.07"/>
		<linearGradient id="SVGID_38_" gradientUnits="userSpaceOnUse" x1="-215.3911" y1="150.588" x2="1455.8358" y2="150.588">
			<stop  offset="0" style="stop-color:#3EA0C2"/>
			<stop  offset="1" style="stop-color:#FFFFFF"/>
		</linearGradient>
		<path class="st36" d="M-215.33,183.83c129.39-16.3,261.48-11.08,389.01,15.23c104.6,21.59,208.61,46.72,313.7,60.93
			c76.88,10.4,167.14,10.53,260.12-25.55c102.16-39.65,184.39-123.01,280.7-159.56c150.86-57.25,304.38-48.08,427.46-1.36"/>
		<linearGradient id="SVGID_39_" gradientUnits="userSpaceOnUse" x1="-215.4177" y1="152.3005" x2="1450.5068" y2="152.3005">
			<stop  offset="0" style="stop-color:#3EA0C2"/>
			<stop  offset="1" style="stop-color:#FFFFFF"/>
		</linearGradient>
		<path class="st37" d="M-215.36,186.12c128.4-16.15,259.46-11.04,386.05,14.92c103.82,21.29,207.06,46.1,311.28,60.55
			c77.29,10.72,167.73,11.89,260.76-24.03C845.17,198,926.9,113.67,1023.33,76.54c150.08-57.79,303.74-48.47,427-1.66"/>
		<linearGradient id="SVGID_40_" gradientUnits="userSpaceOnUse" x1="-215.4443" y1="154.0337" x2="1445.1779" y2="154.0337">
			<stop  offset="0" style="stop-color:#3EA0C2"/>
			<stop  offset="1" style="stop-color:#FFFFFF"/>
		</linearGradient>
		<path class="st38" d="M-215.38,188.42c127.41-16.01,257.45-11,383.09,14.6c103.03,21,205.52,45.49,308.86,60.17
			c77.71,11.04,168.33,13.24,261.4-22.51c102.72-39.45,183.95-124.75,280.5-162.47c149.3-58.33,303.1-48.86,426.53-1.95"/>
		<linearGradient id="SVGID_41_" gradientUnits="userSpaceOnUse" x1="-215.4709" y1="155.7928" x2="1439.8489" y2="155.7928">
			<stop  offset="0" style="stop-color:#3EA0C2"/>
			<stop  offset="1" style="stop-color:#FFFFFF"/>
		</linearGradient>
		<path class="st39" d="M-215.41,190.73c126.42-15.86,255.44-10.96,380.12,14.28c102.25,20.71,203.98,44.89,306.44,59.78
			c78.12,11.36,168.92,14.59,262.05-20.99c103-39.35,183.73-125.61,280.4-163.92c148.52-58.86,302.46-49.25,426.07-2.25"/>
		<linearGradient id="SVGID_42_" gradientUnits="userSpaceOnUse" x1="-215.4975" y1="157.5777" x2="1434.5199" y2="157.5777">
			<stop  offset="0" style="stop-color:#3EA0C2"/>
			<stop  offset="1" style="stop-color:#FFFFFF"/>
		</linearGradient>
		<path class="st40" d="M-215.44,193.05c125.43-15.71,253.42-10.92,377.16,13.96c101.47,20.41,202.43,44.29,304.02,59.4
			c78.54,11.69,169.51,15.95,262.69-19.46c103.28-39.25,183.52-126.47,280.3-165.38c147.74-59.38,301.81-49.64,425.6-2.54"/>
		<linearGradient id="SVGID_43_" gradientUnits="userSpaceOnUse" x1="-215.5241" y1="159.3882" x2="1429.191" y2="159.3882">
			<stop  offset="0" style="stop-color:#3EA0C2"/>
			<stop  offset="1" style="stop-color:#FFFFFF"/>
		</linearGradient>
		<path class="st41" d="M-215.46,195.38c124.44-15.56,251.41-10.88,374.2,13.64c100.69,20.12,200.88,43.69,301.6,59.02
			c78.96,12.02,170.11,17.3,263.33-17.94c103.56-39.15,183.3-127.33,280.2-166.83c146.96-59.91,301.17-50.03,425.14-2.84"/>
		<linearGradient id="SVGID_44_" gradientUnits="userSpaceOnUse" x1="-215.5507" y1="161.2242" x2="1423.8621" y2="161.2242">
			<stop  offset="0" style="stop-color:#3EA0C2"/>
			<stop  offset="1" style="stop-color:#FFFFFF"/>
		</linearGradient>
		<path class="st42" d="M-215.49,197.72c123.45-15.42,249.4-10.84,371.23,13.33c99.91,19.82,199.34,43.1,299.18,58.64
			c79.37,12.35,170.7,18.66,263.98-16.42c103.84-39.05,183.08-128.18,280.1-168.29c146.18-60.43,300.53-50.42,424.67-3.13"/>
		<linearGradient id="SVGID_45_" gradientUnits="userSpaceOnUse" x1="-215.5773" y1="163.0836" x2="1418.5331" y2="163.0836">
			<stop  offset="0" style="stop-color:#3EA0C2"/>
			<stop  offset="1" style="stop-color:#FFFFFF"/>
		</linearGradient>
		<path class="st43" d="M-215.52,200.07c122.46-15.27,247.38-10.8,368.27,13.01c99.13,19.53,197.79,42.52,296.76,58.26
			c79.78,12.69,171.3,20.01,264.62-14.89c104.12-38.94,182.87-129.03,280-169.74c145.41-60.94,299.88-50.81,424.21-3.43"/>
		<linearGradient id="SVGID_46_" gradientUnits="userSpaceOnUse" x1="-215.6039" y1="164.9544" x2="1413.2041" y2="164.9544">
			<stop  offset="0" style="stop-color:#3EA0C2"/>
			<stop  offset="1" style="stop-color:#FFFFFF"/>
		</linearGradient>
		<path class="st44" d="M-215.54,202.41c121.47-15.12,245.37-10.76,365.31,12.69c98.34,19.24,196.24,41.94,294.35,57.87
			C524.31,286,616,294.34,709.38,259.6c104.4-38.84,182.66-129.88,279.9-171.2c144.64-61.45,299.24-51.2,423.74-3.73"/>
		<linearGradient id="SVGID_47_" gradientUnits="userSpaceOnUse" x1="-215.6304" y1="166.8328" x2="1407.8751" y2="166.8328">
			<stop  offset="0" style="stop-color:#3EA0C2"/>
			<stop  offset="1" style="stop-color:#FFFFFF"/>
		</linearGradient>
		<path class="st45" d="M-215.57,204.74c120.48-14.97,243.36-10.72,362.34,12.37c97.56,18.94,194.69,41.36,291.93,57.49
			c80.61,13.37,172.48,22.72,265.91-11.85c104.68-38.74,182.45-130.73,279.81-172.65c143.87-61.95,298.6-51.59,423.28-4.02"/>
		<linearGradient id="SVGID_48_" gradientUnits="userSpaceOnUse" x1="-215.657" y1="168.7167" x2="1402.5461" y2="168.7167">
			<stop  offset="0" style="stop-color:#3EA0C2"/>
			<stop  offset="1" style="stop-color:#FFFFFF"/>
		</linearGradient>
		<path class="st46" d="M-215.6,207.07c119.49-14.83,241.34-10.68,359.38,12.06c96.78,18.65,193.15,40.79,289.51,57.11
			c81.02,13.72,173.08,24.08,266.55-10.33C804.8,227.28,882.08,134.34,979.55,91.8c143.1-62.45,297.96-51.98,422.82-4.32"/>
		<linearGradient id="SVGID_49_" gradientUnits="userSpaceOnUse" x1="-215.6836" y1="170.6361" x2="1397.2172" y2="170.6361">
			<stop  offset="0" style="stop-color:#3EA0C2"/>
			<stop  offset="1" style="stop-color:#FFFFFF"/>
		</linearGradient>
		<path class="st47" d="M-215.62,209.41c118.51-14.68,239.33-10.64,356.42,11.74c96,18.36,191.6,40.22,287.09,56.73
			c81.44,14.08,173.67,25.44,267.2-8.8c105.24-38.53,182.03-132.41,279.61-175.56c142.33-62.95,297.31-52.38,422.35-4.61"/>
		<linearGradient id="SVGID_50_" gradientUnits="userSpaceOnUse" x1="-215.7102" y1="172.5287" x2="1391.8882" y2="172.5287">
			<stop  offset="0" style="stop-color:#3EA0C2"/>
			<stop  offset="1" style="stop-color:#FFFFFF"/>
		</linearGradient>
		<path class="st48" d="M-215.65,211.72c117.52-14.53,237.32-10.6,353.46,11.42c95.22,18.06,190.04,39.66,284.67,56.34
			c81.85,14.43,174.27,26.79,267.84-7.28c105.52-38.42,181.82-133.24,279.51-177.02c141.57-63.44,296.67-52.77,421.89-4.91"/>
		<linearGradient id="SVGID_51_" gradientUnits="userSpaceOnUse" x1="-215.7368" y1="174.4174" x2="1386.5592" y2="174.4174">
			<stop  offset="0" style="stop-color:#3EA0C2"/>
			<stop  offset="1" style="stop-color:#FFFFFF"/>
		</linearGradient>
		<path class="st49" d="M-215.68,214.01c116.53-14.38,235.3-10.56,350.49,11.1c94.44,17.77,188.49,39.1,282.25,55.96
			c82.26,14.79,174.86,28.15,268.48-5.76C791.35,237,867.17,141.25,964.96,96.85c140.81-63.93,296.03-53.16,421.42-5.2"/>
		<linearGradient id="SVGID_52_" gradientUnits="userSpaceOnUse" x1="-215.7634" y1="176.299" x2="1381.2302" y2="176.299">
			<stop  offset="0" style="stop-color:#3EA0C2"/>
			<stop  offset="1" style="stop-color:#FFFFFF"/>
		</linearGradient>
		<path class="st50" d="M-215.7,216.28c115.54-14.24,233.29-10.52,347.53,10.79c93.65,17.47,186.94,38.55,279.83,55.58
			c82.67,15.16,175.46,29.51,269.13-4.23C786.87,240.2,862.2,143.51,960.1,98.49c140.05-64.41,295.38-53.55,420.96-5.5"/>
		<linearGradient id="SVGID_53_" gradientUnits="userSpaceOnUse" x1="-215.7899" y1="178.1695" x2="1375.9012" y2="178.1695">
			<stop  offset="0" style="stop-color:#3EA0C2"/>
			<stop  offset="1" style="stop-color:#FFFFFF"/>
		</linearGradient>
		<path class="st51" d="M-215.73,218.53c114.55-14.09,231.28-10.48,344.57,10.47c92.87,17.18,185.39,37.99,277.42,55.2
			c83.07,15.53,176.05,30.86,269.77-2.71c106.36-38.11,181.21-135.73,279.21-181.38c139.29-64.89,294.74-53.94,420.49-5.79"/>
		<linearGradient id="SVGID_54_" gradientUnits="userSpaceOnUse" x1="-215.8165" y1="180.0242" x2="1370.5723" y2="180.0242">
			<stop  offset="0" style="stop-color:#3EA0C2"/>
			<stop  offset="1" style="stop-color:#FFFFFF"/>
		</linearGradient>
		<path class="st52" d="M-215.76,220.74c113.56-13.94,229.26-10.44,341.6,10.15c92.09,16.89,183.83,37.45,275,54.82
			c83.48,15.9,176.65,32.22,270.41-1.19c106.64-38,181.01-136.55,279.11-182.84c138.54-65.36,294.1-54.33,420.03-6.09"/>
		<linearGradient id="SVGID_55_" gradientUnits="userSpaceOnUse" x1="-215.8431" y1="181.8571" x2="1365.2433" y2="181.8571">
			<stop  offset="0" style="stop-color:#3EA0C2"/>
			<stop  offset="1" style="stop-color:#FFFFFF"/>
		</linearGradient>
		<path class="st53" d="M-215.78,222.93c112.57-13.79,227.25-10.4,338.64,9.83c91.31,16.59,182.28,36.91,272.58,54.43
			c83.89,16.28,177.24,33.58,271.06,0.33C773.41,249.64,847.3,150.16,945.5,103.24c137.78-65.84,293.46-54.72,419.56-6.38"/>
		<linearGradient id="SVGID_56_" gradientUnits="userSpaceOnUse" x1="-215.8697" y1="183.6608" x2="1359.9144" y2="183.6608">
			<stop  offset="0" style="stop-color:#3EA0C2"/>
			<stop  offset="1" style="stop-color:#FFFFFF"/>
		</linearGradient>
		<path class="st54" d="M-215.81,225.08c111.58-13.65,225.24-10.36,335.68,9.52c90.53,16.3,180.72,36.37,270.16,54.05
			c84.29,16.67,177.84,34.94,271.7,1.86c107.2-37.79,180.62-138.19,278.91-185.75c137.03-66.3,292.81-55.11,419.1-6.68"/>
		<linearGradient id="SVGID_57_" gradientUnits="userSpaceOnUse" x1="-215.8962" y1="185.4254" x2="1354.5854" y2="185.4254">
			<stop  offset="0" style="stop-color:#3EA0C2"/>
			<stop  offset="1" style="stop-color:#FFFFFF"/>
		</linearGradient>
		<path class="st55" d="M-215.84,227.17c110.59-13.5,223.22-10.32,332.71,9.2c89.75,16,179.16,35.83,267.74,53.67
			c84.69,17.05,178.44,36.3,272.34,3.38c107.48-37.68,180.42-139,278.81-187.2c136.29-66.77,292.17-55.5,418.63-6.97"/>
		<linearGradient id="SVGID_58_" gradientUnits="userSpaceOnUse" x1="-215.9228" y1="187.1393" x2="1349.2565" y2="187.1393">
			<stop  offset="0" style="stop-color:#3EA0C2"/>
			<stop  offset="1" style="stop-color:#FFFFFF"/>
		</linearGradient>
		<path class="st56" d="M-215.86,229.21c109.6-13.35,221.21-10.28,329.75,8.88c88.96,15.71,177.6,35.3,265.32,53.29
			c85.1,17.45,179.03,37.66,272.99,4.9c107.76-37.57,180.23-139.81,278.71-188.66c135.54-67.23,291.53-55.89,418.17-7.27"/>
		<linearGradient id="SVGID_59_" gradientUnits="userSpaceOnUse" x1="-215.9494" y1="188.3146" x2="1343.9275" y2="188.3146">
			<stop  offset="0" style="stop-color:#3EA0C2"/>
			<stop  offset="1" style="stop-color:#FFFFFF"/>
		</linearGradient>
		<path class="st57" d="M-215.89,230.7c108.62-13.2,219.2-10.24,326.79,8.56c88.18,15.42,176.04,34.78,262.9,52.91
			c85.5,17.85,179.63,39.02,273.63,6.43c108.05-37.46,180.04-140.62,278.61-190.11c134.8-67.68,290.88-56.28,417.7-7.57"/>
		<linearGradient id="SVGID_60_" gradientUnits="userSpaceOnUse" x1="-215.9759" y1="189.0682" x2="1338.5985" y2="189.0682">
			<stop  offset="0" style="stop-color:#3EA0C2"/>
			<stop  offset="1" style="stop-color:#FFFFFF"/>
		</linearGradient>
		<path class="st58" d="M-215.92,231.76c107.63-13.06,217.18-10.2,323.82,8.25c87.4,15.12,174.48,34.25,260.49,52.52
			c85.9,18.25,180.22,40.38,274.27,7.95C751,263.12,822.52,159.05,921.18,108.91c134.06-68.14,290.24-56.67,417.24-7.86"/>
		<linearGradient id="SVGID_61_" gradientUnits="userSpaceOnUse" x1="-216.0025" y1="189.8177" x2="1333.2695" y2="189.8177">
			<stop  offset="0" style="stop-color:#3EA0C2"/>
			<stop  offset="1" style="stop-color:#FFFFFF"/>
		</linearGradient>
		<path class="st59" d="M-215.94,232.8c106.64-12.91,215.17-10.16,320.86,7.93c86.62,14.83,172.92,33.73,258.07,52.14
			c86.3,18.66,180.82,41.74,274.92,9.47c108.61-37.24,179.67-142.22,278.41-193.02c133.32-68.59,289.6-57.06,416.77-8.16"/>
		<linearGradient id="SVGID_62_" gradientUnits="userSpaceOnUse" x1="-216.029" y1="190.5645" x2="1327.9406" y2="190.5645">
			<stop  offset="0" style="stop-color:#3EA0C2"/>
			<stop  offset="1" style="stop-color:#FFFFFF"/>
		</linearGradient>
		<path class="st60" d="M-215.97,233.83c105.65-12.76,213.16-10.12,317.9,7.61c85.84,14.54,171.35,33.21,255.65,51.76
			c86.69,19.07,181.42,43.1,275.56,10.99c108.89-37.13,179.48-143.02,278.31-194.48c132.59-69.03,288.96-57.45,416.31-8.45"/>
		<linearGradient id="SVGID_63_" gradientUnits="userSpaceOnUse" x1="-216.0556" y1="191.3101" x2="1322.6116" y2="191.3101">
			<stop  offset="0" style="stop-color:#3EA0C2"/>
			<stop  offset="1" style="stop-color:#FFFFFF"/>
		</linearGradient>
		<path class="st61" d="M-216,234.86c104.66-12.61,211.14-10.08,314.94,7.29c85.06,14.24,169.79,32.7,253.23,51.38
			c87.09,19.49,182.01,44.46,276.2,12.52c109.17-37.02,179.3-143.81,278.21-195.93c131.86-69.48,288.31-57.84,415.84-8.75"/>
		<linearGradient id="SVGID_64_" gradientUnits="userSpaceOnUse" x1="-216.0822" y1="192.0558" x2="1317.2826" y2="192.0558">
			<stop  offset="0" style="stop-color:#3EA0C2"/>
			<stop  offset="1" style="stop-color:#FFFFFF"/>
		</linearGradient>
		<path class="st62" d="M-216.02,235.88c103.67-12.47,209.13-10.04,311.97,6.98c84.27,13.95,168.22,32.19,250.81,51
			c87.48,19.92,182.61,45.82,276.85,14.04c109.45-36.91,179.12-144.61,278.12-197.39c131.13-69.92,287.67-58.23,415.38-9.04"/>
		<linearGradient id="SVGID_65_" gradientUnits="userSpaceOnUse" x1="-216.1087" y1="192.8032" x2="1311.9536" y2="192.8032">
			<stop  offset="0" style="stop-color:#3EA0C2"/>
			<stop  offset="1" style="stop-color:#FFFFFF"/>
		</linearGradient>
		<path class="st63" d="M-216.05,236.89c102.68-12.32,207.12-10,309.01,6.66c83.49,13.65,166.65,31.68,248.39,50.61
			c87.87,20.35,183.2,47.18,277.49,15.56c109.74-36.8,178.95-145.39,278.02-198.84c130.4-70.35,287.03-58.62,414.91-9.34"/>
		<linearGradient id="SVGID_66_" gradientUnits="userSpaceOnUse" x1="-216.1353" y1="193.5535" x2="1560.0215" y2="193.5535">
			<stop  offset="0" style="stop-color:#3EA0C2"/>
			<stop  offset="1" style="stop-color:#FFFFFF"/>
		</linearGradient>
		<path class="st64" d="M-216.08,237.89c101.69-12.17,205.1-9.96,306.05,6.34c82.71,13.36,165.08,31.18,245.97,50.23
			c88.26,20.79,183.8,48.55,278.13,17.09c110.02-36.69,178.77-146.18,277.92-200.3c129.68-70.79,286.38-59.01,414.45-9.63
			c93.18,35.87,175.65,90.95,253.26,153.4"/>
		<linearGradient id="SVGID_67_" gradientUnits="userSpaceOnUse" x1="-216.1618" y1="194.3494" x2="1555.0853" y2="194.3494">
			<stop  offset="0" style="stop-color:#3EA0C2"/>
			<stop  offset="1" style="stop-color:#FFFFFF"/>
		</linearGradient>
		<path class="st65" d="M-216.1,238.9c100.7-12.02,203.09-9.92,303.08,6.02c81.93,13.07,163.51,30.68,243.55,49.85
			c88.64,21.23,184.46,50.09,278.78,18.61c110.37-36.36,178.6-146.96,277.82-201.75c128.96-71.22,285.74-59.4,413.99-9.93
			c93.1,35.87,175.65,90.78,253.66,152.58"/>
		<linearGradient id="SVGID_68_" gradientUnits="userSpaceOnUse" x1="-216.1883" y1="195.1075" x2="1550.1492" y2="195.1075">
			<stop  offset="0" style="stop-color:#3EA0C2"/>
			<stop  offset="1" style="stop-color:#FFFFFF"/>
		</linearGradient>
		<path class="st66" d="M-216.13,239.9c99.71-11.88,201.08-9.88,300.12,5.7c81.15,12.77,161.94,30.18,241.14,49.47
			c89.03,21.68,185.05,51.45,279.42,20.13C715.2,278.95,782.98,167.47,882.27,112c128.24-71.65,285.1-59.79,413.52-10.22
			c93.03,35.86,175.65,90.6,254.06,151.75"/>
		<linearGradient id="SVGID_69_" gradientUnits="userSpaceOnUse" x1="-216.2149" y1="195.8721" x2="1545.2129" y2="195.8721">
			<stop  offset="0" style="stop-color:#3EA0C2"/>
			<stop  offset="1" style="stop-color:#FFFFFF"/>
		</linearGradient>
		<path class="st67" d="M-216.16,240.91c98.72-11.73,199.06-9.84,297.16,5.39c80.37,12.48,160.37,29.69,238.72,49.09
			c89.41,22.14,185.65,52.8,280.07,21.65c110.93-36.16,178.27-148.51,277.62-204.66c127.53-72.07,284.46-60.18,413.06-10.52
			c92.95,35.85,175.65,90.43,254.45,150.93"/>
		<linearGradient id="SVGID_70_" gradientUnits="userSpaceOnUse" x1="-216.2414" y1="196.6216" x2="1540.2767" y2="196.6216">
			<stop  offset="0" style="stop-color:#3EA0C2"/>
			<stop  offset="1" style="stop-color:#FFFFFF"/>
		</linearGradient>
		<path class="st68" d="M-216.18,241.89c97.74-11.58,197.05-9.8,294.19,5.07c79.58,12.18,158.79,29.19,236.3,48.7
			c89.79,22.6,186.24,54.16,280.71,23.18c111.21-36.05,178.1-149.28,277.52-206.12c126.81-72.5,283.81-60.57,412.59-10.81
			c92.87,35.84,175.65,90.26,254.85,150.11"/>
		<linearGradient id="SVGID_71_" gradientUnits="userSpaceOnUse" x1="-216.268" y1="197.3728" x2="1535.3405" y2="197.3728">
			<stop  offset="0" style="stop-color:#3EA0C2"/>
			<stop  offset="1" style="stop-color:#FFFFFF"/>
		</linearGradient>
		<path class="st69" d="M-216.21,242.87c96.75-11.43,195.04-9.76,291.23,4.75c78.8,11.89,157.21,28.7,233.88,48.32
			c90.17,23.07,186.83,55.51,281.35,24.7C701.74,284.7,768.2,170.59,867.67,113.07c126.11-72.92,283.17-60.96,412.13-11.11
			c92.8,35.83,175.65,90.1,255.24,149.28"/>
		<linearGradient id="SVGID_72_" gradientUnits="userSpaceOnUse" x1="-216.2945" y1="198.1657" x2="1530.4041" y2="198.1657">
			<stop  offset="0" style="stop-color:#3EA0C2"/>
			<stop  offset="1" style="stop-color:#FFFFFF"/>
		</linearGradient>
		<path class="st70" d="M-216.24,243.89c95.76-11.29,193.02-9.72,288.27,4.43c78.02,11.6,155.63,28.22,231.46,47.94
			c90.54,23.55,187.43,56.87,282,26.22c111.77-35.85,177.79-150.82,277.32-209.03c125.4-73.33,282.53-61.35,411.66-11.4
			c92.72,35.82,175.64,89.93,255.64,148.46"/>
		<linearGradient id="SVGID_73_" gradientUnits="userSpaceOnUse" x1="-216.321" y1="198.9688" x2="1525.4678" y2="198.9688">
			<stop  offset="0" style="stop-color:#3EA0C2"/>
			<stop  offset="1" style="stop-color:#FFFFFF"/>
		</linearGradient>
		<path class="st71" d="M-216.26,244.91c94.77-11.14,191.01-9.68,285.3,4.12c77.24,11.3,154.05,27.73,229.04,47.56
			C389,320.62,486.1,354.8,580.72,324.33c112.05-35.74,177.63-151.58,277.22-210.48c124.7-73.75,281.88-61.74,411.2-11.7
			c92.64,35.81,175.64,89.76,256.03,147.63"/>
		<linearGradient id="SVGID_74_" gradientUnits="userSpaceOnUse" x1="-216.3475" y1="199.7825" x2="1520.5314" y2="199.7825">
			<stop  offset="0" style="stop-color:#3EA0C2"/>
			<stop  offset="1" style="stop-color:#FFFFFF"/>
		</linearGradient>
		<path class="st72" d="M-216.29,245.94c93.78-10.99,189-9.64,282.34,3.8c76.46,11.01,152.47,27.25,226.62,47.17
			c91.28,24.52,188.61,59.57,283.28,29.27c112.32-35.64,177.48-152.34,277.12-211.94c124-74.16,281.24-62.13,410.73-12
			c92.56,35.81,175.64,89.6,256.43,146.81"/>
		<linearGradient id="SVGID_75_" gradientUnits="userSpaceOnUse" x1="-216.3741" y1="200.6075" x2="1515.595" y2="200.6075">
			<stop  offset="0" style="stop-color:#3EA0C2"/>
			<stop  offset="1" style="stop-color:#FFFFFF"/>
		</linearGradient>
		<path class="st73" d="M-216.32,246.97c92.79-10.84,186.98-9.6,279.38,3.48c75.68,10.72,150.88,26.77,224.21,46.79
			c91.65,25.02,189.21,60.93,283.93,30.79c112.6-35.54,177.33-153.1,277.02-213.39c123.3-74.57,280.6-62.52,410.27-12.29
			c92.49,35.8,175.64,89.44,256.83,145.99"/>
		<linearGradient id="SVGID_76_" gradientUnits="userSpaceOnUse" x1="-216.4006" y1="201.4441" x2="1510.6586" y2="201.4441">
			<stop  offset="0" style="stop-color:#3EA0C2"/>
			<stop  offset="1" style="stop-color:#FFFFFF"/>
		</linearGradient>
		<path class="st74" d="M-216.34,248.01c91.8-10.69,184.97-9.56,276.42,3.16c74.89,10.42,149.3,26.3,221.79,46.41
			c92.01,25.53,189.8,62.28,284.57,32.31c112.88-35.44,177.19-153.85,276.92-214.85c122.61-74.98,279.96-62.91,409.8-12.59
			c92.41,35.79,175.63,89.27,257.22,145.16"/>
		<linearGradient id="SVGID_77_" gradientUnits="userSpaceOnUse" x1="-216.4271" y1="202.2927" x2="1505.7222" y2="202.2927">
			<stop  offset="0" style="stop-color:#3EA0C2"/>
			<stop  offset="1" style="stop-color:#FFFFFF"/>
		</linearGradient>
		<path class="st75" d="M-216.37,249.06c90.81-10.55,182.96-9.52,273.45,2.85c74.11,10.13,147.71,25.82,219.37,46.03
			c92.37,26.05,190.39,63.64,285.21,33.84c113.16-35.33,177.04-154.6,276.82-216.3c121.92-75.39,279.31-63.3,409.34-12.88
			c92.33,35.78,175.63,89.11,257.62,144.34"/>
		<linearGradient id="SVGID_78_" gradientUnits="userSpaceOnUse" x1="-216.4536" y1="203.1535" x2="1500.7858" y2="203.1535">
			<stop  offset="0" style="stop-color:#3EA0C2"/>
			<stop  offset="1" style="stop-color:#FFFFFF"/>
		</linearGradient>
		<path class="st76" d="M-216.4,250.11c89.82-10.4,180.94-9.48,270.49,2.53c73.33,9.83,146.12,25.35,216.95,45.65
			c92.73,26.57,190.99,64.99,285.86,35.36c113.44-35.23,176.9-155.35,276.72-217.76c121.23-75.79,278.67-63.69,408.87-13.18
			c92.26,35.77,175.63,88.95,258.01,143.52"/>
		<linearGradient id="SVGID_79_" gradientUnits="userSpaceOnUse" x1="-216.4801" y1="204.0268" x2="1495.8492" y2="204.0268">
			<stop  offset="0" style="stop-color:#3EA0C2"/>
			<stop  offset="1" style="stop-color:#FFFFFF"/>
		</linearGradient>
		<path class="st77" d="M-216.42,251.18c88.83-10.25,178.93-9.44,267.53,2.21c72.55,9.54,144.52,24.88,214.53,45.26
			c93.08,27.1,191.58,66.35,286.5,36.88c113.72-35.13,176.77-156.09,276.62-219.21c120.55-76.19,278.03-64.08,408.41-13.47
			c92.18,35.76,175.62,88.8,258.41,142.69"/>
		<linearGradient id="SVGID_80_" gradientUnits="userSpaceOnUse" x1="-216.5066" y1="204.9126" x2="1490.912" y2="204.9126">
			<stop  offset="0" style="stop-color:#3EA0C2"/>
			<stop  offset="1" style="stop-color:#FFFFFF"/>
		</linearGradient>
		<path class="st78" d="M-216.45,252.25c87.84-10.1,176.92-9.4,264.56,1.89c71.77,9.25,142.93,24.41,212.11,44.88
			c93.43,27.64,192.17,67.7,287.14,38.41c114-35.03,176.63-156.83,276.52-220.67c119.86-76.6,277.38-64.47,407.94-13.77
			c92.1,35.75,175.53,88.78,258.81,141.87"/>
		<linearGradient id="SVGID_81_" gradientUnits="userSpaceOnUse" x1="-216.5331" y1="205.8111" x2="1485.9757" y2="205.8111">
			<stop  offset="0" style="stop-color:#3EA0C2"/>
			<stop  offset="1" style="stop-color:#FFFFFF"/>
		</linearGradient>
		<path class="st79" d="M-216.48,253.33c86.86-9.96,174.9-9.36,261.6,1.58c70.99,8.95,141.33,23.95,209.69,44.5
			c93.77,28.19,192.77,69.05,287.79,39.93c114.28-34.92,176.5-157.57,276.42-222.12c119.19-76.99,276.74-64.86,407.48-14.06
			c92.02,35.75,175.55,88.59,259.2,141.05"/>
		<linearGradient id="SVGID_82_" gradientUnits="userSpaceOnUse" x1="-216.5596" y1="206.7223" x2="1481.0393" y2="206.7223">
			<stop  offset="0" style="stop-color:#3EA0C2"/>
			<stop  offset="1" style="stop-color:#FFFFFF"/>
		</linearGradient>
		<path class="st80" d="M-216.5,254.43c85.87-9.81,172.89-9.32,258.64,1.26c70.2,8.66,139.73,23.48,207.27,44.12
			c94.11,28.75,193.36,70.41,288.43,41.45c114.56-34.82,176.38-158.31,276.33-223.58c118.51-77.39,276.1-65.25,407.01-14.36
			c91.95,35.74,175.57,88.4,259.6,140.22"/>
		<linearGradient id="SVGID_83_" gradientUnits="userSpaceOnUse" x1="-216.5861" y1="207.6728" x2="1476.1029" y2="207.6728">
			<stop  offset="0" style="stop-color:#3EA0C2"/>
			<stop  offset="1" style="stop-color:#FFFFFF"/>
		</linearGradient>
		<path class="st81" d="M-216.53,255.53c84.88-9.66,170.88-9.28,255.67,0.94c69.42,8.36,138.13,23.02,204.86,43.74
			c94.45,29.32,193.95,71.76,289.07,42.97c114.83-34.72,176.34-158.92,276.23-225.03c117.94-77.64,275.46-65.64,406.55-14.65
			c91.87,35.73,175.58,88.21,259.99,139.4"/>
		<linearGradient id="SVGID_84_" gradientUnits="userSpaceOnUse" x1="-216.6126" y1="208.5826" x2="1210.703" y2="208.5826">
			<stop  offset="0" style="stop-color:#3EA0C2"/>
			<stop  offset="1" style="stop-color:#FFFFFF"/>
		</linearGradient>
		<path class="st82" d="M-216.56,256.64c152.56-17.3,308.72-2.22,455.15,43.98c94.78,29.9,194.55,73.12,289.72,44.5
			c115.11-34.62,176.14-159.77,276.13-226.49c117.17-78.18,274.81-66.03,406.08-14.95"/>
		<linearGradient id="SVGID_85_" gradientUnits="userSpaceOnUse" x1="-216.6127" y1="210.8055" x2="1214.5393" y2="210.8055">
			<stop  offset="0" style="stop-color:#3EA0C2"/>
			<stop  offset="2.403846e-04" style="stop-color:#3EA0C2"/>
			<stop  offset="1" style="stop-color:#FFFFFF"/>
		</linearGradient>
		<path class="st83" d="M-216.56,258.77c152.95-17.38,309.61-2.37,456.46,43.75c95,29.84,195.03,72.98,290.33,44.12
			c69.15-20.94,118.77-74.54,169.23-128.22c33.69-35.82,67.72-71.64,107.93-98.08c97.5-64.15,222.6-66.33,337.34-35.99
			c23.75,6.28,47.06,13.95,69.62,22.75"/>
		<linearGradient id="SVGID_86_" gradientUnits="userSpaceOnUse" x1="-216.6127" y1="213.0716" x2="1218.3756" y2="213.0716">
			<stop  offset="0" style="stop-color:#3EA0C2"/>
			<stop  offset="2.403846e-04" style="stop-color:#3EA0C2"/>
			<stop  offset="1" style="stop-color:#FFFFFF"/>
		</linearGradient>
		<path class="st84" d="M-216.56,260.96c153.34-17.45,310.49-2.53,457.78,43.52c95.22,29.78,195.52,72.84,290.94,43.75
			c69.25-21.11,118.89-74.97,169.61-128.56c33.89-35.79,68.17-71.38,108.6-97.56c97.92-63.53,223.24-65.11,338.1-34.46
			c23.78,6.35,47.13,14.07,69.73,22.91"/>
		<linearGradient id="SVGID_87_" gradientUnits="userSpaceOnUse" x1="-216.6128" y1="215.3572" x2="1222.2119" y2="215.3572">
			<stop  offset="0" style="stop-color:#3EA0C2"/>
			<stop  offset="2.403846e-04" style="stop-color:#3EA0C2"/>
			<stop  offset="1" style="stop-color:#FFFFFF"/>
		</linearGradient>
		<path class="st85" d="M-216.56,263.17c153.74-17.52,311.38-2.69,459.09,43.3c95.44,29.72,196.01,72.7,291.55,43.38
			c69.35-21.29,119.02-75.39,169.98-128.9c34.08-35.75,68.63-71.11,109.27-97.04c98.33-62.9,223.89-63.89,338.86-32.92
			c23.8,6.41,47.19,14.2,69.84,23.08"/>
		<linearGradient id="SVGID_88_" gradientUnits="userSpaceOnUse" x1="-216.6129" y1="217.6787" x2="1226.0482" y2="217.6787">
			<stop  offset="0" style="stop-color:#3EA0C2"/>
			<stop  offset="2.403846e-04" style="stop-color:#3EA0C2"/>
			<stop  offset="1" style="stop-color:#FFFFFF"/>
		</linearGradient>
		<path class="st86" d="M-216.56,265.42c154.13-17.6,312.26-2.84,460.41,43.07c95.65,29.67,196.49,72.56,292.15,43.01
			c69.45-21.46,119.14-75.82,170.35-129.24c34.28-35.71,69.08-70.84,109.93-96.52c98.75-62.28,224.54-62.68,339.62-31.39
			c23.83,6.48,47.25,14.32,69.95,23.25"/>
		<linearGradient id="SVGID_89_" gradientUnits="userSpaceOnUse" x1="-216.613" y1="220.041" x2="1229.8845" y2="220.041">
			<stop  offset="0" style="stop-color:#3EA0C2"/>
			<stop  offset="2.403846e-04" style="stop-color:#3EA0C2"/>
			<stop  offset="1" style="stop-color:#FFFFFF"/>
		</linearGradient>
		<path class="st87" d="M-216.56,267.71c154.52-17.67,313.15-3,461.72,42.84c95.87,29.61,196.98,72.42,292.76,42.63
			c69.54-21.63,119.27-76.24,170.73-129.58c34.48-35.67,69.54-70.58,110.6-96c99.16-61.65,225.18-61.46,340.38-29.85
			c23.86,6.55,47.32,14.45,70.06,23.42"/>
		<linearGradient id="SVGID_90_" gradientUnits="userSpaceOnUse" x1="-216.6131" y1="222.4472" x2="1233.7207" y2="222.4472">
			<stop  offset="0" style="stop-color:#3EA0C2"/>
			<stop  offset="2.403846e-04" style="stop-color:#3EA0C2"/>
			<stop  offset="1" style="stop-color:#FFFFFF"/>
		</linearGradient>
		<path class="st88" d="M-216.56,270.05c154.91-17.74,314.04-3.16,463.04,42.62c96.09,29.55,197.47,72.28,293.37,42.26
			c69.64-21.81,119.39-76.67,171.1-129.91c34.68-35.64,69.99-70.31,111.27-95.48c99.58-61.02,225.83-60.25,341.15-28.32
			c23.89,6.62,47.38,14.57,70.17,23.58"/>
		<linearGradient id="SVGID_91_" gradientUnits="userSpaceOnUse" x1="-216.6132" y1="224.8977" x2="1237.557" y2="224.8977">
			<stop  offset="0" style="stop-color:#3EA0C2"/>
			<stop  offset="2.403846e-04" style="stop-color:#3EA0C2"/>
			<stop  offset="1" style="stop-color:#FFFFFF"/>
		</linearGradient>
		<path class="st89" d="M-216.56,272.44c155.3-17.82,314.92-3.32,464.35,42.39c96.31,29.49,197.95,72.14,293.98,41.89
			c69.74-21.98,119.51-77.1,171.47-130.25c34.87-35.6,70.45-70.04,111.93-94.96c99.99-60.4,226.48-59.03,341.91-26.78
			c23.92,6.69,47.45,14.7,70.28,23.75"/>
		<linearGradient id="SVGID_92_" gradientUnits="userSpaceOnUse" x1="-216.6133" y1="227.3907" x2="1241.3933" y2="227.3907">
			<stop  offset="0" style="stop-color:#3EA0C2"/>
			<stop  offset="2.403846e-04" style="stop-color:#3EA0C2"/>
			<stop  offset="1" style="stop-color:#FFFFFF"/>
		</linearGradient>
		<path class="st90" d="M-216.56,274.87c155.69-17.89,315.81-3.47,465.67,42.16c96.53,29.44,198.44,72,294.59,41.51
			c69.84-22.15,119.64-77.52,171.85-130.59c35.07-35.56,70.9-69.78,112.6-94.44c100.41-59.77,227.13-57.81,342.67-25.24
			c23.94,6.76,47.51,14.82,70.39,23.92"/>
		<linearGradient id="SVGID_93_" gradientUnits="userSpaceOnUse" x1="-216.6134" y1="229.9225" x2="1245.2296" y2="229.9225">
			<stop  offset="0" style="stop-color:#3EA0C2"/>
			<stop  offset="2.403846e-04" style="stop-color:#3EA0C2"/>
			<stop  offset="1" style="stop-color:#FFFFFF"/>
		</linearGradient>
		<path class="st91" d="M-216.56,277.35c156.08-17.96,316.69-3.63,466.99,41.94c96.75,29.38,198.93,71.86,295.2,41.14
			c69.93-22.33,119.76-77.95,172.22-130.93c35.27-35.52,71.36-69.51,113.27-93.92c100.82-59.15,227.77-56.6,343.43-23.71
			c23.97,6.82,47.57,14.95,70.5,24.08"/>
		<linearGradient id="SVGID_94_" gradientUnits="userSpaceOnUse" x1="-216.6135" y1="232.4884" x2="1249.0658" y2="232.4884">
			<stop  offset="0" style="stop-color:#3EA0C2"/>
			<stop  offset="2.403846e-04" style="stop-color:#3EA0C2"/>
			<stop  offset="1" style="stop-color:#FFFFFF"/>
		</linearGradient>
		<path class="st92" d="M-216.56,279.87c156.47-18.04,317.58-3.79,468.3,41.71c96.97,29.32,199.41,71.72,295.81,40.77
			c70.03-22.5,119.89-78.37,172.59-131.27c35.47-35.49,71.81-69.24,113.93-93.4c101.24-58.52,228.42-55.38,344.19-22.17
			c24,6.89,47.64,15.07,70.61,24.25"/>
		<linearGradient id="SVGID_95_" gradientUnits="userSpaceOnUse" x1="-216.6136" y1="235.0834" x2="1252.9021" y2="235.0834">
			<stop  offset="0" style="stop-color:#3EA0C2"/>
			<stop  offset="2.403846e-04" style="stop-color:#3EA0C2"/>
			<stop  offset="1" style="stop-color:#FFFFFF"/>
		</linearGradient>
		<path class="st93" d="M-216.56,282.42c156.86-18.11,318.47-3.95,469.62,41.49c97.19,29.26,199.9,71.58,296.42,40.39
			c70.13-22.68,120.01-78.8,172.97-131.61c35.66-35.45,72.27-68.98,114.6-92.88c101.65-57.9,229.07-54.16,344.95-20.64
			c24.03,6.96,47.7,15.2,70.72,24.42"/>
		<linearGradient id="SVGID_96_" gradientUnits="userSpaceOnUse" x1="-216.6136" y1="237.7059" x2="1256.7384" y2="237.7059">
			<stop  offset="0" style="stop-color:#3EA0C2"/>
			<stop  offset="2.403846e-04" style="stop-color:#3EA0C2"/>
			<stop  offset="1" style="stop-color:#FFFFFF"/>
		</linearGradient>
		<path class="st94" d="M-216.56,285c157.25-18.18,319.35-4.1,470.93,41.26c97.41,29.2,200.39,71.45,297.03,40.02
			c70.23-22.85,120.14-79.23,173.34-131.95c35.86-35.41,72.72-68.71,115.27-92.36c102.07-57.27,229.71-52.95,345.71-19.1
			c24.06,7.03,47.76,15.32,70.83,24.58"/>
		<linearGradient id="SVGID_97_" gradientUnits="userSpaceOnUse" x1="-216.6137" y1="240.3799" x2="1260.5746" y2="240.3799">
			<stop  offset="0" style="stop-color:#3EA0C2"/>
			<stop  offset="2.403846e-04" style="stop-color:#3EA0C2"/>
			<stop  offset="1" style="stop-color:#FFFFFF"/>
		</linearGradient>
		<path class="st95" d="M-216.56,287.6c157.65-18.25,320.24-4.26,472.25,41.03c97.63,29.15,200.87,71.31,297.63,39.65
			c70.32-23.02,120.26-79.65,173.71-132.28c36.06-35.37,73.23-68.35,115.93-91.84c102.6-56.43,230.36-51.73,346.47-17.57
			c24.08,7.1,47.83,15.44,70.95,24.75"/>
		<linearGradient id="SVGID_98_" gradientUnits="userSpaceOnUse" x1="-216.6138" y1="243.0346" x2="1264.4109" y2="243.0346">
			<stop  offset="0" style="stop-color:#3EA0C2"/>
			<stop  offset="2.403846e-04" style="stop-color:#3EA0C2"/>
			<stop  offset="1" style="stop-color:#FFFFFF"/>
		</linearGradient>
		<path class="st96" d="M-216.56,290.22c158.04-18.33,321.12-4.42,473.56,40.81c97.85,29.09,201.36,71.17,298.24,39.27
			c70.42-23.2,120.38-80.08,174.08-132.62c36.25-35.34,73.69-68.08,116.6-91.32c103.02-55.8,231.01-50.51,347.23-16.03
			c24.11,7.16,47.89,15.57,71.06,24.92"/>
		<linearGradient id="SVGID_99_" gradientUnits="userSpaceOnUse" x1="-216.6139" y1="245.6999" x2="1268.2472" y2="245.6999">
			<stop  offset="0" style="stop-color:#3EA0C2"/>
			<stop  offset="2.403846e-04" style="stop-color:#3EA0C2"/>
			<stop  offset="1" style="stop-color:#FFFFFF"/>
		</linearGradient>
		<path class="st97" d="M-216.56,292.85c158.43-18.4,322.01-4.58,474.88,40.58c98.07,29.03,201.85,71.03,298.85,38.9
			c70.52-23.37,120.51-80.5,174.46-132.96c36.45-35.3,74.14-67.81,117.27-90.8c103.44-55.16,231.65-49.3,348-14.49
			c24.14,7.23,47.95,15.69,71.17,25.08"/>
		<linearGradient id="SVGID_100_" gradientUnits="userSpaceOnUse" x1="-216.614" y1="248.3722" x2="1272.0834" y2="248.3722">
			<stop  offset="0" style="stop-color:#3EA0C2"/>
			<stop  offset="2.403846e-04" style="stop-color:#3EA0C2"/>
			<stop  offset="1" style="stop-color:#FFFFFF"/>
		</linearGradient>
		<path class="st98" d="M-216.56,295.5c158.82-18.47,322.9-4.73,476.19,40.35c98.29,28.97,202.33,70.89,299.46,38.53
			c70.62-23.54,120.63-80.93,174.83-133.3c36.65-35.26,74.6-67.54,117.93-90.28c103.86-54.52,232.3-48.08,348.76-12.96
			c24.17,7.3,48.02,15.82,71.28,25.25"/>
		<linearGradient id="SVGID_101_" gradientUnits="userSpaceOnUse" x1="-216.6141" y1="251.0482" x2="1275.9197" y2="251.0482">
			<stop  offset="0" style="stop-color:#3EA0C2"/>
			<stop  offset="2.403846e-04" style="stop-color:#3EA0C2"/>
			<stop  offset="1" style="stop-color:#FFFFFF"/>
		</linearGradient>
		<path class="st99" d="M-216.56,298.15c159.21-18.55,323.78-4.89,477.51,40.13c98.51,28.92,202.82,70.75,300.07,38.15
			c70.71-23.72,120.76-81.36,175.2-133.64c36.85-35.22,75.06-67.26,118.6-89.76c104.28-53.88,232.95-46.87,349.52-11.42
			c24.2,7.37,48.08,15.94,71.39,25.42"/>
		<linearGradient id="SVGID_102_" gradientUnits="userSpaceOnUse" x1="-216.6142" y1="253.7251" x2="1279.7559" y2="253.7251">
			<stop  offset="0" style="stop-color:#3EA0C2"/>
			<stop  offset="2.403846e-04" style="stop-color:#3EA0C2"/>
			<stop  offset="1" style="stop-color:#FFFFFF"/>
		</linearGradient>
		<path class="st100" d="M-216.56,300.81c159.6-18.62,324.67-5.05,478.82,39.9c98.73,28.86,203.31,70.61,300.68,37.78
			c70.81-23.89,120.88-81.78,175.58-133.98c37.04-35.19,75.52-66.99,119.27-89.24c104.7-53.24,233.59-45.65,350.28-9.89
			c24.23,7.44,48.15,16.07,71.5,25.59"/>
		<linearGradient id="SVGID_103_" gradientUnits="userSpaceOnUse" x1="-216.6142" y1="256.4041" x2="1283.5922" y2="256.4041">
			<stop  offset="0" style="stop-color:#3EA0C2"/>
			<stop  offset="2.403846e-04" style="stop-color:#3EA0C2"/>
			<stop  offset="1" style="stop-color:#FFFFFF"/>
		</linearGradient>
		<path class="st101" d="M-216.56,303.47c159.99-18.69,325.55-5.21,480.14,39.67c98.95,28.8,203.79,70.47,301.29,37.41
			c70.91-24.07,121-82.21,175.95-134.32c37.24-35.15,75.97-66.72,119.93-88.72c105.12-52.61,234.24-44.43,351.04-8.35
			c24.25,7.5,48.21,16.19,71.61,25.75"/>
		<linearGradient id="SVGID_104_" gradientUnits="userSpaceOnUse" x1="-216.6143" y1="259.0902" x2="1287.4283" y2="259.0902">
			<stop  offset="0" style="stop-color:#3EA0C2"/>
			<stop  offset="2.403846e-04" style="stop-color:#3EA0C2"/>
			<stop  offset="1" style="stop-color:#FFFFFF"/>
		</linearGradient>
		<path class="st102" d="M-216.56,306.15c160.38-18.77,326.44-5.36,481.45,39.45c99.16,28.74,204.28,70.33,301.9,37.03
			C637.8,358.39,687.92,300,743.12,247.98c37.44-35.11,76.43-66.45,120.6-88.2c105.54-51.97,234.89-43.22,351.8-6.81
			c24.28,7.57,48.27,16.32,71.72,25.92"/>
		<linearGradient id="SVGID_105_" gradientUnits="userSpaceOnUse" x1="-216.6144" y1="261.7813" x2="1291.2646" y2="261.7813">
			<stop  offset="0" style="stop-color:#3EA0C2"/>
			<stop  offset="2.403846e-04" style="stop-color:#3EA0C2"/>
			<stop  offset="1" style="stop-color:#FFFFFF"/>
		</linearGradient>
		<path class="st103" d="M-216.56,308.84c160.77-18.84,327.32-5.52,482.77,39.22c99.38,28.68,204.77,70.19,302.51,36.66
			c71.1-24.41,121.25-83.06,176.7-134.99c37.64-35.07,76.88-66.18,121.27-87.68c105.96-51.34,235.53-42,352.56-5.28
			c24.31,7.64,48.34,16.44,71.83,26.09"/>
		<linearGradient id="SVGID_106_" gradientUnits="userSpaceOnUse" x1="-216.6145" y1="264.4759" x2="1295.1008" y2="264.4759">
			<stop  offset="0" style="stop-color:#3EA0C2"/>
			<stop  offset="2.403846e-04" style="stop-color:#3EA0C2"/>
			<stop  offset="1" style="stop-color:#FFFFFF"/>
		</linearGradient>
		<path class="st104" d="M-216.56,311.53c161.16-18.91,328.21-5.68,484.08,38.99c99.6,28.63,205.25,70.05,303.12,36.29
			c71.2-24.59,121.38-83.49,177.07-135.33c37.83-35.04,77.34-65.91,121.93-87.16c106.38-50.7,236.18-40.78,353.32-3.74
			c24.34,7.71,48.4,16.57,71.94,26.25"/>
		<linearGradient id="SVGID_107_" gradientUnits="userSpaceOnUse" x1="-216.6146" y1="267.1743" x2="1298.9371" y2="267.1743">
			<stop  offset="0" style="stop-color:#3EA0C2"/>
			<stop  offset="2.403846e-04" style="stop-color:#3EA0C2"/>
			<stop  offset="1" style="stop-color:#FFFFFF"/>
		</linearGradient>
		<path class="st105" d="M-216.56,314.23C-55,295.25,112.54,308.4,268.84,353c99.82,28.57,205.74,69.91,303.72,35.92
			c71.3-24.76,121.5-83.91,177.44-135.67c38.03-35,77.8-65.64,122.6-86.64c106.79-50.07,236.83-39.57,354.08-2.21
			c24.37,7.78,48.46,16.69,72.05,26.42"/>
		<linearGradient id="SVGID_108_" gradientUnits="userSpaceOnUse" x1="-216.6147" y1="269.8724" x2="1302.7733" y2="269.8724">
			<stop  offset="0" style="stop-color:#3EA0C2"/>
			<stop  offset="2.403846e-04" style="stop-color:#3EA0C2"/>
			<stop  offset="1" style="stop-color:#FFFFFF"/>
		</linearGradient>
		<path class="st106" d="M-216.56,316.94c161.95-19.06,329.98-5.99,486.71,38.54c100.04,28.51,206.23,69.77,304.33,35.54
			c71.4-24.93,121.63-84.34,177.82-136.01c38.23-34.96,78.25-65.37,123.27-86.12c107.21-49.43,237.48-38.35,354.84-0.67
			c24.39,7.85,48.53,16.82,72.16,26.59"/>
		<linearGradient id="SVGID_109_" gradientUnits="userSpaceOnUse" x1="-216.6147" y1="272.5699" x2="1306.6096" y2="272.5699">
			<stop  offset="0" style="stop-color:#3EA0C2"/>
			<stop  offset="2.403846e-04" style="stop-color:#3EA0C2"/>
			<stop  offset="1" style="stop-color:#FFFFFF"/>
		</linearGradient>
		<path class="st107" d="M-216.56,319.65c162.34-19.13,330.87-6.15,488.03,38.31c100.26,28.45,206.72,69.63,304.94,35.17
			c71.49-25.11,121.75-84.76,178.19-136.35c38.43-34.92,78.71-65.1,123.93-85.6c107.63-48.8,238.12-37.14,355.61,0.86
			c24.42,7.91,48.59,16.94,72.27,26.75"/>
		<linearGradient id="SVGID_110_" gradientUnits="userSpaceOnUse" x1="-216.6148" y1="274.8809" x2="1310.4458" y2="274.8809">
			<stop  offset="0" style="stop-color:#3EA0C2"/>
			<stop  offset="2.403846e-04" style="stop-color:#3EA0C2"/>
			<stop  offset="1" style="stop-color:#FFFFFF"/>
		</linearGradient>
		<path class="st108" d="M-216.56,321.98c162.73-19.21,331.75-6.31,489.34,38.09c100.48,28.39,207.2,69.5,305.55,34.8
			c71.59-25.28,121.87-85.19,178.56-136.69c38.62-34.89,79.17-64.83,124.6-85.08c108.04-48.17,238.77-35.92,356.37,2.4
			c24.45,7.98,48.66,17.07,72.39,26.92"/>
		<linearGradient id="SVGID_111_" gradientUnits="userSpaceOnUse" x1="-216.6149" y1="277.0018" x2="1314.2821" y2="277.0018">
			<stop  offset="0" style="stop-color:#3EA0C2"/>
			<stop  offset="2.403846e-04" style="stop-color:#3EA0C2"/>
			<stop  offset="1" style="stop-color:#FFFFFF"/>
		</linearGradient>
		<path class="st109" d="M-216.56,324.12c163.12-19.28,332.64-6.47,490.66,37.86c100.7,28.34,207.69,69.36,306.16,34.42
			c71.69-25.45,122-85.62,178.94-137.03c38.82-34.85,79.62-64.56,125.27-84.56c108.46-47.53,239.42-34.7,357.13,3.94
			c24.48,8.05,48.72,17.19,72.5,27.09"/>
		<linearGradient id="SVGID_112_" gradientUnits="userSpaceOnUse" x1="-216.615" y1="279.1377" x2="1318.1183" y2="279.1377">
			<stop  offset="0" style="stop-color:#3EA0C2"/>
			<stop  offset="2.403846e-04" style="stop-color:#3EA0C2"/>
			<stop  offset="1" style="stop-color:#FFFFFF"/>
		</linearGradient>
		<path class="st110" d="M-216.56,326.28c163.51-19.35,333.53-6.62,491.97,37.63c100.92,28.28,208.18,69.22,306.77,34.05
			c71.78-25.63,122.12-86.04,179.31-137.36c39.02-34.81,80.08-64.29,125.93-84.04c108.88-46.9,240.06-33.49,357.89,5.47
			c24.51,8.12,48.78,17.32,72.61,27.25"/>
		<linearGradient id="SVGID_113_" gradientUnits="userSpaceOnUse" x1="-216.6151" y1="281.288" x2="1321.9545" y2="281.288">
			<stop  offset="0" style="stop-color:#3EA0C2"/>
			<stop  offset="2.403846e-04" style="stop-color:#3EA0C2"/>
			<stop  offset="1" style="stop-color:#FFFFFF"/>
		</linearGradient>
		<path class="st111" d="M-216.56,328.47c163.9-19.43,334.41-6.78,493.29,37.41c101.14,28.22,208.66,69.08,307.38,33.68
			c71.88-25.8,122.25-86.47,179.68-137.7c39.22-34.77,80.53-64.02,126.6-83.52c109.29-46.27,240.71-32.27,358.65,7.01
			c24.53,8.19,48.85,17.44,72.72,27.42"/>
		<linearGradient id="SVGID_114_" gradientUnits="userSpaceOnUse" x1="-216.6151" y1="283.4521" x2="1325.7908" y2="283.4521">
			<stop  offset="0" style="stop-color:#3EA0C2"/>
			<stop  offset="2.403846e-04" style="stop-color:#3EA0C2"/>
			<stop  offset="1" style="stop-color:#FFFFFF"/>
		</linearGradient>
		<path class="st112" d="M-216.56,330.67c164.29-19.5,335.3-6.94,494.6,37.18c101.36,28.16,209.15,68.94,307.99,33.3
			c71.98-25.98,122.37-86.89,180.06-138.04c39.41-34.74,80.99-63.75,127.27-83c109.71-45.64,241.36-31.05,359.41,8.54
			c24.56,8.25,48.91,17.56,72.83,27.59"/>
		<linearGradient id="SVGID_115_" gradientUnits="userSpaceOnUse" x1="-216.6152" y1="285.6296" x2="1329.627" y2="285.6296">
			<stop  offset="0" style="stop-color:#3EA0C2"/>
			<stop  offset="2.403846e-04" style="stop-color:#3EA0C2"/>
			<stop  offset="1" style="stop-color:#FFFFFF"/>
		</linearGradient>
		<path class="st113" d="M-216.56,332.88c164.68-19.57,336.18-7.1,495.92,36.95c101.58,28.11,209.64,68.8,308.6,32.93
			c72.08-26.15,122.49-87.32,180.43-138.38c39.61-34.7,81.44-63.48,127.93-82.48c110.12-45.01,242-29.84,360.17,10.08
			c24.59,8.32,48.97,17.69,72.94,27.75"/>
		<linearGradient id="SVGID_116_" gradientUnits="userSpaceOnUse" x1="-216.6153" y1="287.8199" x2="1333.4633" y2="287.8199">
			<stop  offset="0" style="stop-color:#3EA0C2"/>
			<stop  offset="2.403846e-04" style="stop-color:#3EA0C2"/>
			<stop  offset="1" style="stop-color:#FFFFFF"/>
		</linearGradient>
		<path class="st114" d="M-216.56,335.12c165.07-19.65,337.07-7.25,497.23,36.73c101.8,28.05,210.12,68.66,309.21,32.56
			c72.17-26.32,122.62-87.75,180.8-138.72c39.81-34.66,81.9-63.21,128.6-81.96c110.54-44.38,242.65-28.62,360.93,11.61
			c24.62,8.39,49.04,17.81,73.05,27.92"/>
		<linearGradient id="SVGID_117_" gradientUnits="userSpaceOnUse" x1="-216.6154" y1="290.0225" x2="1337.2994" y2="290.0225">
			<stop  offset="0" style="stop-color:#3EA0C2"/>
			<stop  offset="2.403846e-04" style="stop-color:#3EA0C2"/>
			<stop  offset="1" style="stop-color:#FFFFFF"/>
		</linearGradient>
		<path class="st115" d="M-216.56,337.37c165.46-19.72,337.96-7.41,498.55,36.5c102.02,27.99,210.61,68.52,309.81,32.18
			c72.27-26.5,122.74-88.17,181.18-139.06c40.01-34.62,82.35-62.94,129.27-81.44c110.95-43.75,243.3-27.41,361.69,13.15
			c24.65,8.46,49.1,17.94,73.16,28.09"/>
		<linearGradient id="SVGID_118_" gradientUnits="userSpaceOnUse" x1="-216.6155" y1="292.2369" x2="1341.1356" y2="292.2369">
			<stop  offset="0" style="stop-color:#3EA0C2"/>
			<stop  offset="2.403846e-04" style="stop-color:#3EA0C2"/>
			<stop  offset="1" style="stop-color:#FFFFFF"/>
		</linearGradient>
		<path class="st116" d="M-216.56,339.64c165.86-19.79,338.84-7.57,499.86,36.27c102.24,27.93,211.1,68.38,310.42,31.81
			c72.37-26.67,122.87-88.6,181.55-139.4c40.2-34.59,82.81-62.67,129.93-80.92c111.36-43.12,243.94-26.19,362.46,14.69
			c24.68,8.53,49.16,18.06,73.27,28.26"/>
		<linearGradient id="SVGID_119_" gradientUnits="userSpaceOnUse" x1="-216.6155" y1="294.4629" x2="1344.9719" y2="294.4629">
			<stop  offset="0" style="stop-color:#3EA0C2"/>
			<stop  offset="2.403846e-04" style="stop-color:#3EA0C2"/>
			<stop  offset="1" style="stop-color:#FFFFFF"/>
		</linearGradient>
		<path class="st117" d="M-216.56,341.93c166.25-19.86,339.73-7.72,501.18,36.05c102.46,27.87,211.58,68.24,311.03,31.44
			c72.47-26.84,122.99-89.02,181.92-139.74c40.4-34.55,83.26-62.4,130.6-80.4c111.78-42.49,244.59-24.97,363.22,16.22
			c24.7,8.6,49.23,18.19,73.38,28.42"/>
		<linearGradient id="SVGID_120_" gradientUnits="userSpaceOnUse" x1="-216.6156" y1="296.6997" x2="1348.8081" y2="296.6997">
			<stop  offset="0" style="stop-color:#3EA0C2"/>
			<stop  offset="2.403846e-04" style="stop-color:#3EA0C2"/>
			<stop  offset="1" style="stop-color:#FFFFFF"/>
		</linearGradient>
		<path class="st118" d="M-216.56,344.23c166.64-19.94,340.61-7.88,502.49,35.82c102.68,27.82,212.07,68.1,311.64,31.06
			c72.56-27.02,123.12-89.45,182.3-140.07c40.6-34.51,83.72-62.14,131.27-79.88c112.19-41.86,245.24-23.76,363.98,17.76
			c24.73,8.66,49.29,18.31,73.49,28.59"/>
		<linearGradient id="SVGID_121_" gradientUnits="userSpaceOnUse" x1="-216.6157" y1="298.9472" x2="1352.6443" y2="298.9472">
			<stop  offset="0" style="stop-color:#3EA0C2"/>
			<stop  offset="2.403846e-04" style="stop-color:#3EA0C2"/>
			<stop  offset="1" style="stop-color:#FFFFFF"/>
		</linearGradient>
		<path class="st119" d="M-216.56,346.55c167.03-20.01,341.5-8.04,503.81,35.59c102.89,27.76,212.56,67.96,312.25,30.69
			c72.66-27.19,123.24-89.88,182.67-140.41c40.8-34.47,84.17-61.87,131.93-79.36c112.6-41.24,245.89-22.54,364.74,19.29
			c24.76,8.73,49.36,18.44,73.6,28.76"/>
		<linearGradient id="SVGID_122_" gradientUnits="userSpaceOnUse" x1="-216.6158" y1="301.205" x2="1356.4805" y2="301.205">
			<stop  offset="0" style="stop-color:#3EA0C2"/>
			<stop  offset="2.403846e-04" style="stop-color:#3EA0C2"/>
			<stop  offset="1" style="stop-color:#FFFFFF"/>
		</linearGradient>
		<path class="st120" d="M-216.56,348.89c167.42-20.08,342.38-8.2,505.12,35.37c103.11,27.7,213.04,67.82,312.86,30.32
			c72.76-27.36,123.36-90.3,183.04-140.75c40.99-34.44,84.63-61.6,132.6-78.84c113.02-40.61,246.53-21.32,365.5,20.83
			c24.79,8.8,49.42,18.56,73.72,28.92"/>
		<linearGradient id="SVGID_123_" gradientUnits="userSpaceOnUse" x1="-216.6158" y1="303.4725" x2="1360.3168" y2="303.4725">
			<stop  offset="0" style="stop-color:#3EA0C2"/>
			<stop  offset="2.403846e-04" style="stop-color:#3EA0C2"/>
			<stop  offset="1" style="stop-color:#FFFFFF"/>
		</linearGradient>
		<path class="st121" d="M-216.56,351.23c167.81-20.16,343.27-8.35,506.44,35.14c103.33,27.64,213.53,67.68,313.47,29.94
			c72.86-27.54,123.49-90.73,183.42-141.09c41.19-34.4,85.08-61.33,133.27-78.32c113.43-39.98,247.18-20.11,366.26,22.37
			c24.82,8.87,49.48,18.69,73.83,29.09"/>
		<linearGradient id="SVGID_124_" gradientUnits="userSpaceOnUse" x1="-216.6159" y1="305.7495" x2="1364.153" y2="305.7495">
			<stop  offset="0" style="stop-color:#3EA0C2"/>
			<stop  offset="2.403846e-04" style="stop-color:#3EA0C2"/>
			<stop  offset="1" style="stop-color:#FFFFFF"/>
		</linearGradient>
		<path class="st122" d="M-216.56,353.6c168.2-20.23,344.16-8.51,507.76,34.92c103.55,27.58,214.02,67.55,314.08,29.57
			c72.95-27.71,123.61-91.15,183.79-141.43c41.39-34.36,85.53-61.07,133.93-77.8c113.84-39.36,247.83-18.89,367.02,23.9
			c24.84,8.94,49.55,18.81,73.94,29.26"/>
		<linearGradient id="SVGID_125_" gradientUnits="userSpaceOnUse" x1="-216.616" y1="308.0357" x2="1367.9891" y2="308.0357">
			<stop  offset="0" style="stop-color:#3EA0C2"/>
			<stop  offset="2.403846e-04" style="stop-color:#3EA0C2"/>
			<stop  offset="1" style="stop-color:#FFFFFF"/>
		</linearGradient>
		<path class="st123" d="M-216.56,355.97c168.59-20.3,345.04-8.67,509.07,34.69c103.77,27.53,214.5,67.41,314.69,29.2
			c73.05-27.89,123.74-91.58,184.16-141.77c41.59-34.32,85.99-60.8,134.6-77.28c114.26-38.73,248.47-17.68,367.78,25.44
			c24.87,9,49.61,18.94,74.05,29.42"/>
		<linearGradient id="SVGID_126_" gradientUnits="userSpaceOnUse" x1="-216.6161" y1="310.3306" x2="1371.8253" y2="310.3306">
			<stop  offset="0" style="stop-color:#3EA0C2"/>
			<stop  offset="2.403846e-04" style="stop-color:#3EA0C2"/>
			<stop  offset="1" style="stop-color:#FFFFFF"/>
		</linearGradient>
		<path class="st124" d="M-216.56,358.36c168.98-20.38,345.93-8.83,510.39,34.46c103.99,27.47,214.99,67.27,315.29,28.83
			c73.15-28.06,123.86-92.01,184.54-142.11c41.78-34.29,86.44-60.53,135.27-76.76c114.67-38.11,249.12-16.46,368.54,26.97
			c24.9,9.07,49.67,19.06,74.16,29.59"/>
		<linearGradient id="SVGID_127_" gradientUnits="userSpaceOnUse" x1="-216.6161" y1="312.6341" x2="1375.6615" y2="312.6341">
			<stop  offset="0" style="stop-color:#3EA0C2"/>
			<stop  offset="2.403846e-04" style="stop-color:#3EA0C2"/>
			<stop  offset="1" style="stop-color:#FFFFFF"/>
		</linearGradient>
		<path class="st125" d="M-216.56,360.77c169.37-20.45,346.81-8.98,511.7,34.24c104.21,27.41,215.48,67.13,315.9,28.45
			c73.25-28.23,123.98-92.43,184.91-142.44c41.98-34.25,86.9-60.27,135.93-76.24c115.08-37.48,249.77-15.24,369.3,28.51
			c24.93,9.14,49.74,19.19,74.27,29.76"/>
		<linearGradient id="SVGID_128_" gradientUnits="userSpaceOnUse" x1="-216.6162" y1="314.9457" x2="1379.4978" y2="314.9457">
			<stop  offset="0" style="stop-color:#3EA0C2"/>
			<stop  offset="2.403846e-04" style="stop-color:#3EA0C2"/>
			<stop  offset="1" style="stop-color:#FFFFFF"/>
		</linearGradient>
		<path class="st126" d="M-216.56,363.18c169.77-20.52,347.7-9.14,513.02,34.01c104.43,27.35,215.96,66.99,316.51,28.08
			c73.34-28.41,124.11-92.86,185.28-142.78c42.18-34.21,87.35-60,136.6-75.72c115.49-36.86,250.41-14.03,370.07,30.04
			c24.96,9.21,49.8,19.31,74.38,29.92"/>
		<linearGradient id="SVGID_129_" gradientUnits="userSpaceOnUse" x1="-216.6163" y1="317.2653" x2="1383.334" y2="317.2653">
			<stop  offset="0" style="stop-color:#3EA0C2"/>
			<stop  offset="2.403846e-04" style="stop-color:#3EA0C2"/>
			<stop  offset="1" style="stop-color:#FFFFFF"/>
		</linearGradient>
		<path class="st127" d="M-216.56,365.61c170.16-20.6,348.59-9.3,514.33,33.78c104.65,27.3,216.45,66.85,317.12,27.71
			c73.44-28.58,124.23-93.29,185.66-143.12c42.38-34.17,87.8-59.73,137.27-75.2c115.9-36.24,251.06-12.81,370.83,31.58
			c24.98,9.28,49.87,19.44,74.49,30.09"/>
		<linearGradient id="SVGID_130_" gradientUnits="userSpaceOnUse" x1="-216.6164" y1="319.5925" x2="1387.1702" y2="319.5925">
			<stop  offset="0" style="stop-color:#3EA0C2"/>
			<stop  offset="2.403846e-04" style="stop-color:#3EA0C2"/>
			<stop  offset="1" style="stop-color:#FFFFFF"/>
		</linearGradient>
		<path class="st128" d="M-216.56,368.06c170.55-20.67,349.47-9.46,515.65,33.56c104.87,27.24,216.94,66.71,317.73,27.33
			c73.54-28.75,124.36-93.71,186.03-143.46c42.57-34.14,88.26-59.47,137.93-74.68c116.32-35.61,251.71-11.59,371.59,33.12
			c25.01,9.35,49.93,19.56,74.6,30.26"/>
		<linearGradient id="SVGID_131_" gradientUnits="userSpaceOnUse" x1="-216.6165" y1="321.927" x2="1391.0063" y2="321.927">
			<stop  offset="0" style="stop-color:#3EA0C2"/>
			<stop  offset="2.403846e-04" style="stop-color:#3EA0C2"/>
			<stop  offset="1" style="stop-color:#FFFFFF"/>
		</linearGradient>
		<path class="st129" d="M-216.56,370.51c170.94-20.74,350.36-9.61,516.96,33.33c105.09,27.18,217.42,66.57,318.34,26.96
			c73.64-28.93,124.48-94.14,186.4-143.8c42.77-34.1,88.71-59.2,138.6-74.16c116.73-34.99,252.35-10.38,372.35,34.65
			c25.04,9.41,49.99,19.68,74.71,30.43"/>
		<linearGradient id="SVGID_132_" gradientUnits="userSpaceOnUse" x1="-216.6165" y1="324.2686" x2="1394.8425" y2="324.2686">
			<stop  offset="0" style="stop-color:#3EA0C2"/>
			<stop  offset="2.403846e-04" style="stop-color:#3EA0C2"/>
			<stop  offset="1" style="stop-color:#FFFFFF"/>
		</linearGradient>
		<path class="st130" d="M-216.56,372.98c171.33-20.82,351.24-9.77,518.28,33.1c105.31,27.12,217.91,66.43,318.95,26.59
			c73.73-29.1,124.61-94.56,186.77-144.14c42.97-34.06,89.17-58.94,139.27-73.64c117.14-34.37,253-9.16,373.11,36.19
			c25.07,9.48,50.06,19.81,74.82,30.59"/>
		<linearGradient id="SVGID_133_" gradientUnits="userSpaceOnUse" x1="-216.6166" y1="326.6171" x2="1398.6787" y2="326.6171">
			<stop  offset="0" style="stop-color:#3EA0C2"/>
			<stop  offset="2.403846e-04" style="stop-color:#3EA0C2"/>
			<stop  offset="1" style="stop-color:#FFFFFF"/>
		</linearGradient>
		<path class="st131" d="M-216.56,375.46c171.72-20.89,352.13-9.93,519.59,32.88c105.53,27.06,218.4,66.29,319.56,26.21
			c73.83-29.28,124.73-94.99,187.15-144.48c43.16-34.02,89.62-58.67,139.93-73.12c117.55-33.75,253.65-7.95,373.87,37.72
			c25.1,9.55,50.12,19.93,74.93,30.76"/>
		<linearGradient id="SVGID_134_" gradientUnits="userSpaceOnUse" x1="-216.6167" y1="328.9722" x2="1402.5149" y2="328.9722">
			<stop  offset="0" style="stop-color:#3EA0C2"/>
			<stop  offset="2.403846e-04" style="stop-color:#3EA0C2"/>
			<stop  offset="1" style="stop-color:#FFFFFF"/>
		</linearGradient>
		<path class="st132" d="M-216.56,377.95c172.11-20.96,353.02-10.09,520.91,32.65c105.75,27.01,218.88,66.15,320.17,25.84
			c73.93-29.45,124.85-95.42,187.52-144.82c43.36-33.99,90.07-58.41,140.6-72.6c117.96-33.13,254.29-6.73,374.63,39.26
			c25.13,9.62,50.18,20.06,75.04,30.93"/>
		<linearGradient id="SVGID_135_" gradientUnits="userSpaceOnUse" x1="-216.6167" y1="331.3337" x2="1406.3512" y2="331.3337">
			<stop  offset="0" style="stop-color:#3EA0C2"/>
			<stop  offset="2.403846e-04" style="stop-color:#3EA0C2"/>
			<stop  offset="1" style="stop-color:#FFFFFF"/>
		</linearGradient>
		<path class="st133" d="M-216.56,380.45c172.5-21.04,353.9-10.24,522.22,32.42c105.97,26.95,219.37,66.01,320.78,25.47
			c74.03-29.62,124.98-95.84,187.89-145.15c43.56-33.95,90.53-58.14,141.27-72.08c118.38-32.51,254.94-5.51,375.39,40.79
			c25.15,9.69,50.25,20.18,75.16,31.09"/>
		<linearGradient id="SVGID_136_" gradientUnits="userSpaceOnUse" x1="-216.6168" y1="333.7014" x2="1410.1874" y2="333.7014">
			<stop  offset="0" style="stop-color:#3EA0C2"/>
			<stop  offset="2.403846e-04" style="stop-color:#3EA0C2"/>
			<stop  offset="1" style="stop-color:#FFFFFF"/>
		</linearGradient>
		<path class="st134" d="M-216.56,382.97c172.89-21.11,354.79-10.4,523.54,32.2c106.19,26.89,219.86,65.87,321.38,25.09
			c74.12-29.8,125.1-96.27,188.27-145.49c43.76-33.91,90.98-57.88,141.93-71.56c118.79-31.89,255.59-4.3,376.15,42.33
			c25.18,9.75,50.31,20.31,75.27,31.26"/>
		<linearGradient id="SVGID_137_" gradientUnits="userSpaceOnUse" x1="-216.6169" y1="336.075" x2="1414.0236" y2="336.075">
			<stop  offset="0" style="stop-color:#3EA0C2"/>
			<stop  offset="2.403846e-04" style="stop-color:#3EA0C2"/>
			<stop  offset="1" style="stop-color:#FFFFFF"/>
		</linearGradient>
		<path class="st135" d="M-216.56,385.49c173.28-21.18,355.67-10.56,524.85,31.97c106.4,26.83,220.34,65.73,321.99,24.72
			c74.22-29.97,125.23-96.69,188.64-145.83c43.95-33.87,91.43-57.61,142.6-71.04c119.2-31.27,256.24-3.08,376.91,43.87
			c25.21,9.82,50.38,20.43,75.38,31.43"/>
		<linearGradient id="SVGID_138_" gradientUnits="userSpaceOnUse" x1="-216.617" y1="338.4544" x2="1417.8597" y2="338.4544">
			<stop  offset="0" style="stop-color:#3EA0C2"/>
			<stop  offset="2.403846e-04" style="stop-color:#3EA0C2"/>
			<stop  offset="1" style="stop-color:#FFFFFF"/>
		</linearGradient>
		<path class="st136" d="M-216.56,388.03c173.68-21.26,356.56-10.72,526.17,31.74c106.62,26.78,220.83,65.6,322.6,24.35
			c74.32-30.14,125.35-97.12,189.01-146.17c44.15-33.84,91.89-57.35,143.27-70.52c119.61-30.65,256.88-1.86,377.68,45.4
			c25.24,9.89,50.44,20.56,75.49,31.59"/>
		<linearGradient id="SVGID_139_" gradientUnits="userSpaceOnUse" x1="-216.617" y1="340.8394" x2="1421.6959" y2="340.8394">
			<stop  offset="0" style="stop-color:#3EA0C2"/>
			<stop  offset="2.403846e-04" style="stop-color:#3EA0C2"/>
			<stop  offset="1" style="stop-color:#FFFFFF"/>
		</linearGradient>
		<path class="st137" d="M-216.56,390.58c174.07-21.33,357.44-10.87,527.48,31.52c106.84,26.72,221.32,65.46,323.21,23.97
			c74.42-30.32,125.47-97.55,189.39-146.51c44.35-33.8,92.34-57.09,143.93-70c120.02-30.03,257.53-0.65,378.44,46.94
			c25.27,9.96,50.5,20.68,75.6,31.76"/>
		<linearGradient id="SVGID_140_" gradientUnits="userSpaceOnUse" x1="-216.6171" y1="343.2298" x2="1425.5321" y2="343.2298">
			<stop  offset="0" style="stop-color:#3EA0C2"/>
			<stop  offset="2.403846e-04" style="stop-color:#3EA0C2"/>
			<stop  offset="1" style="stop-color:#FFFFFF"/>
		</linearGradient>
		<path class="st138" d="M-216.56,393.14c174.46-21.4,358.33-11.03,528.8,31.29c107.06,26.66,221.8,65.32,323.82,23.6
			c74.51-30.49,125.6-97.97,189.76-146.85c44.55-33.76,92.8-56.82,144.6-69.48c120.43-29.42,258.18,0.57,379.2,48.47
			c25.29,10.03,50.57,20.81,75.71,31.93"/>
		<linearGradient id="SVGID_141_" gradientUnits="userSpaceOnUse" x1="-216.6172" y1="345.6254" x2="1429.3683" y2="345.6254">
			<stop  offset="0" style="stop-color:#3EA0C2"/>
			<stop  offset="2.403846e-04" style="stop-color:#3EA0C2"/>
			<stop  offset="1" style="stop-color:#FFFFFF"/>
		</linearGradient>
		<path class="st139" d="M-216.56,395.7c174.85-21.48,359.22-11.19,530.11,31.06c107.28,26.6,222.29,65.18,324.43,23.23
			c74.61-30.66,125.72-98.4,190.13-147.19c44.74-33.72,93.25-56.56,145.27-68.96c120.84-28.8,258.82,1.78,379.96,50.01
			c25.32,10.09,50.63,20.93,75.82,32.09"/>
		<linearGradient id="SVGID_142_" gradientUnits="userSpaceOnUse" x1="-216.6172" y1="348.026" x2="1433.2045" y2="348.026">
			<stop  offset="0" style="stop-color:#3EA0C2"/>
			<stop  offset="2.403846e-04" style="stop-color:#3EA0C2"/>
			<stop  offset="1" style="stop-color:#FFFFFF"/>
		</linearGradient>
		<path class="st140" d="M-216.56,398.28c175.24-21.55,360.1-11.35,531.43,30.84c107.5,26.54,222.78,65.04,325.04,22.85
			c74.71-30.84,125.85-98.82,190.51-147.52c44.94-33.69,93.7-56.3,145.93-68.44c121.26-28.18,259.47,3,380.72,51.55
			c25.35,10.16,50.69,21.06,75.93,32.26"/>
		<linearGradient id="SVGID_143_" gradientUnits="userSpaceOnUse" x1="-216.6173" y1="350.4316" x2="1437.0406" y2="350.4316">
			<stop  offset="0" style="stop-color:#3EA0C2"/>
			<stop  offset="2.403846e-04" style="stop-color:#3EA0C2"/>
			<stop  offset="1" style="stop-color:#FFFFFF"/>
		</linearGradient>
		<path class="st141" d="M-216.56,400.87c175.63-21.62,360.99-11.5,532.74,30.61c107.72,26.49,223.26,64.9,325.65,22.48
			c74.81-31.01,125.97-99.25,190.88-147.86c45.14-33.65,94.16-56.03,146.6-67.92c121.67-27.57,260.12,4.22,381.48,53.08
			c25.38,10.23,50.76,21.18,76.04,32.43"/>
		<linearGradient id="SVGID_144_" gradientUnits="userSpaceOnUse" x1="-216.6174" y1="352.8419" x2="1440.8768" y2="352.8419">
			<stop  offset="0" style="stop-color:#3EA0C2"/>
			<stop  offset="2.403846e-04" style="stop-color:#3EA0C2"/>
			<stop  offset="1" style="stop-color:#FFFFFF"/>
		</linearGradient>
		<path class="st142" d="M-216.56,403.47c176.02-21.69,361.87-11.66,534.06,30.38c107.94,26.43,223.75,64.76,326.26,22.11
			c74.9-31.19,126.09-99.68,191.25-148.2c45.34-33.61,94.61-55.77,147.27-67.4c122.08-26.95,260.76,5.43,382.24,54.62
			c25.41,10.3,50.82,21.31,76.15,32.59"/>
		<linearGradient id="SVGID_145_" gradientUnits="userSpaceOnUse" x1="-216.6174" y1="355.2567" x2="1444.713" y2="355.2567">
			<stop  offset="0" style="stop-color:#3EA0C2"/>
			<stop  offset="2.403846e-04" style="stop-color:#3EA0C2"/>
			<stop  offset="1" style="stop-color:#FFFFFF"/>
		</linearGradient>
		<path class="st143" d="M-216.56,406.08c176.41-21.77,362.76-11.82,535.37,30.16c108.16,26.37,224.24,64.62,326.87,21.74
			c75-31.36,126.22-100.1,191.63-148.54c45.53-33.57,95.06-55.51,147.93-66.88c122.49-26.34,261.41,6.65,383,56.15
			c25.44,10.37,50.88,21.43,76.26,32.76"/>
		<linearGradient id="SVGID_146_" gradientUnits="userSpaceOnUse" x1="-216.6175" y1="357.6761" x2="1448.5492" y2="357.6761">
			<stop  offset="0" style="stop-color:#3EA0C2"/>
			<stop  offset="2.403846e-04" style="stop-color:#3EA0C2"/>
			<stop  offset="1" style="stop-color:#FFFFFF"/>
		</linearGradient>
		<path class="st144" d="M-216.56,408.69c176.8-21.84,363.65-11.98,536.69,29.93c108.38,26.31,224.72,64.48,327.47,21.36
			c75.1-31.53,126.34-100.53,192-148.88c45.73-33.54,95.52-55.25,148.6-66.35c122.9-25.72,262.06,7.87,383.76,57.69
			c25.46,10.44,50.95,21.56,76.37,32.93"/>
		<linearGradient id="SVGID_147_" gradientUnits="userSpaceOnUse" x1="-216.6176" y1="360.0627" x2="1452.3854" y2="360.0627">
			<stop  offset="0" style="stop-color:#3EA0C2"/>
			<stop  offset="2.403846e-04" style="stop-color:#3EA0C2"/>
			<stop  offset="1" style="stop-color:#FFFFFF"/>
		</linearGradient>
		<path class="st145" d="M-216.56,411.28c177.19-21.91,364.53-12.13,538,29.7c108.6,26.25,225.21,64.34,328.08,20.99
			C724.73,430.27,776,361.02,841.9,312.76c45.93-33.5,95.97-54.98,149.27-65.83c123.31-25.11,262.7,9.08,384.53,59.22
			c25.49,10.5,51.01,21.68,76.49,33.1"/>
		<linearGradient id="SVGID_148_" gradientUnits="userSpaceOnUse" x1="-216.6177" y1="362.4717" x2="1456.2216" y2="362.4717">
			<stop  offset="0" style="stop-color:#3EA0C2"/>
			<stop  offset="2.403846e-04" style="stop-color:#3EA0C2"/>
			<stop  offset="1" style="stop-color:#FFFFFF"/>
		</linearGradient>
		<path class="st146" d="M-216.56,413.9c177.58-21.99,365.42-12.29,539.32,29.48c108.82,26.2,225.7,64.2,328.69,20.62
			c75.29-31.88,126.59-101.38,192.75-149.56c46.13-33.46,96.43-54.72,149.93-65.31c123.72-24.49,263.35,10.3,385.29,60.76
			c25.52,10.57,51.08,21.8,76.6,33.26"/>
		<linearGradient id="SVGID_149_" gradientUnits="userSpaceOnUse" x1="-216.6177" y1="364.925" x2="1460.0576" y2="364.925">
			<stop  offset="0" style="stop-color:#3EA0C2"/>
			<stop  offset="2.403846e-04" style="stop-color:#3EA0C2"/>
			<stop  offset="1" style="stop-color:#FFFFFF"/>
		</linearGradient>
		<path class="st147" d="M-216.56,416.57c177.98-22.06,366.3-12.45,540.63,29.25c109.04,26.14,226.18,64.06,329.3,20.24
			c75.39-32.05,126.72-101.81,193.12-149.9c46.32-33.42,96.88-54.46,150.6-64.79c124.14-23.88,264,11.51,386.05,62.3
			c25.55,10.64,51.14,21.93,76.71,33.43"/>
		<linearGradient id="SVGID_150_" gradientUnits="userSpaceOnUse" x1="-216.6178" y1="367.3151" x2="1463.8938" y2="367.3151">
			<stop  offset="0" style="stop-color:#3EA0C2"/>
			<stop  offset="2.403846e-04" style="stop-color:#3EA0C2"/>
			<stop  offset="1" style="stop-color:#FFFFFF"/>
		</linearGradient>
		<path class="st148" d="M-216.56,419.22c178.37-22.13,367.19-12.61,541.95,29.02c109.26,26.08,226.67,63.92,329.91,19.87
			c75.49-32.23,126.84-102.23,193.49-150.23c46.52-33.39,97.31-54.3,151.27-64.27c124.5-23.5,264.65,12.73,386.81,63.83
			c25.58,10.71,51.2,22.05,76.82,33.6"/>
		<linearGradient id="SVGID_151_" gradientUnits="userSpaceOnUse" x1="-216.6179" y1="369.7595" x2="1467.73" y2="369.7595">
			<stop  offset="0" style="stop-color:#3EA0C2"/>
			<stop  offset="2.403846e-04" style="stop-color:#3EA0C2"/>
			<stop  offset="1" style="stop-color:#FFFFFF"/>
		</linearGradient>
		<path class="st149" d="M-216.56,421.89c178.76-22.21,368.08-12.76,543.26,28.8c109.48,26.02,227.16,63.78,330.52,19.5
			c75.59-32.4,126.96-102.66,193.87-150.57c46.72-33.35,97.77-54.04,151.93-63.75c124.92-22.88,265.29,13.95,387.57,65.37
			c25.6,10.78,51.27,22.18,76.93,33.76"/>
		<linearGradient id="SVGID_152_" gradientUnits="userSpaceOnUse" x1="-216.6179" y1="372.2079" x2="1471.5662" y2="372.2079">
			<stop  offset="0" style="stop-color:#3EA0C2"/>
			<stop  offset="2.403846e-04" style="stop-color:#3EA0C2"/>
			<stop  offset="1" style="stop-color:#FFFFFF"/>
		</linearGradient>
		<path class="st150" d="M-216.56,424.56c179.15-22.28,368.96-12.92,544.58,28.57c109.7,25.97,227.64,63.65,331.13,19.12
			c75.68-32.58,127.09-103.08,194.24-150.91c46.92-33.31,98.22-53.77,152.6-63.23c125.33-22.25,265.94,15.16,388.33,66.9
			c25.63,10.84,51.33,22.3,77.04,33.93"/>
		<linearGradient id="SVGID_153_" gradientUnits="userSpaceOnUse" x1="-216.618" y1="374.6601" x2="1475.4023" y2="374.6601">
			<stop  offset="0" style="stop-color:#3EA0C2"/>
			<stop  offset="2.403846e-04" style="stop-color:#3EA0C2"/>
			<stop  offset="1" style="stop-color:#FFFFFF"/>
		</linearGradient>
		<path class="st151" d="M-216.56,427.25c179.54-22.35,369.85-13.08,545.9,28.35c109.91,25.91,228.13,63.51,331.74,18.75
			c75.78-32.75,127.21-103.51,194.61-151.25c47.11-33.27,98.68-53.5,153.27-62.71c125.75-21.63,266.59,16.38,389.09,68.44
			c25.66,10.91,51.39,22.43,77.15,34.1"/>
		<linearGradient id="SVGID_154_" gradientUnits="userSpaceOnUse" x1="-216.6181" y1="377.116" x2="1479.2385" y2="377.116">
			<stop  offset="0" style="stop-color:#3EA0C2"/>
			<stop  offset="2.403846e-04" style="stop-color:#3EA0C2"/>
			<stop  offset="1" style="stop-color:#FFFFFF"/>
		</linearGradient>
		<path class="st152" d="M-216.56,429.94c179.93-22.43,370.73-13.23,547.21,28.12c110.13,25.85,228.62,63.37,332.35,18.38
			c75.88-32.92,127.34-103.94,194.99-151.59c47.31-33.24,99.14-53.24,153.93-62.19c126.16-21,267.23,17.6,389.85,69.98
			c25.69,10.98,51.46,22.55,77.26,34.26"/>
		<linearGradient id="SVGID_155_" gradientUnits="userSpaceOnUse" x1="-216.6181" y1="379.5755" x2="1483.0747" y2="379.5755">
			<stop  offset="0" style="stop-color:#3EA0C2"/>
			<stop  offset="2.403846e-04" style="stop-color:#3EA0C2"/>
			<stop  offset="1" style="stop-color:#FFFFFF"/>
		</linearGradient>
		<path class="st153" d="M-216.56,432.64c180.32-22.5,371.62-13.39,548.53,27.89c110.35,25.79,229.1,63.23,332.95,18
			c75.98-33.1,127.46-104.36,195.36-151.93c47.51-33.2,99.59-52.97,154.6-61.67c126.58-20.38,267.88,18.81,390.61,71.51
			c25.72,11.05,51.52,22.68,77.37,34.43"/>
		<linearGradient id="SVGID_156_" gradientUnits="userSpaceOnUse" x1="-216.6182" y1="382.0385" x2="1486.9109" y2="382.0385">
			<stop  offset="0" style="stop-color:#3EA0C2"/>
			<stop  offset="2.403846e-04" style="stop-color:#3EA0C2"/>
			<stop  offset="1" style="stop-color:#FFFFFF"/>
		</linearGradient>
		<path class="st154" d="M-216.56,435.35c180.71-22.57,372.51-13.55,549.84,27.67c110.57,25.73,229.59,63.09,333.56,17.63
			c76.07-33.27,127.58-104.79,195.73-152.27c47.71-33.16,100.05-52.7,155.27-61.15c127-19.75,268.53,20.03,391.38,73.05
			c25.74,11.12,51.59,22.8,77.48,34.6"/>
		<linearGradient id="SVGID_157_" gradientUnits="userSpaceOnUse" x1="-216.6183" y1="384.2885" x2="1490.7469" y2="384.2885">
			<stop  offset="0" style="stop-color:#3EA0C2"/>
			<stop  offset="2.403846e-04" style="stop-color:#3EA0C2"/>
			<stop  offset="1" style="stop-color:#FFFFFF"/>
		</linearGradient>
		<path class="st155" d="M-216.56,437.85c181.1-22.65,373.39-13.71,551.16,27.44c110.79,25.68,230.08,62.95,334.17,17.26
			c76.17-33.44,127.71-105.21,196.11-152.6c47.9-33.12,100.5-52.43,155.93-60.63c127.41-19.13,269.17,21.24,392.14,74.58
			c25.77,11.19,51.65,22.93,77.59,34.76"/>
		<linearGradient id="SVGID_158_" gradientUnits="userSpaceOnUse" x1="-216.6183" y1="386.2671" x2="1494.5831" y2="386.2671">
			<stop  offset="0" style="stop-color:#3EA0C2"/>
			<stop  offset="2.403846e-04" style="stop-color:#3EA0C2"/>
			<stop  offset="1" style="stop-color:#FFFFFF"/>
		</linearGradient>
		<path class="st156" d="M-216.56,440.08c181.49-22.72,374.28-13.86,552.47,27.21c111.01,25.62,230.56,62.81,334.78,16.88
			c76.27-33.62,127.83-105.64,196.48-152.94c48.1-33.09,100.96-52.17,156.6-60.11c127.83-18.5,269.82,22.46,392.9,76.12
			c25.8,11.25,51.71,23.05,77.7,34.93"/>
		<linearGradient id="SVGID_159_" gradientUnits="userSpaceOnUse" x1="-216.6184" y1="388.2383" x2="1498.4193" y2="388.2383">
			<stop  offset="0" style="stop-color:#3EA0C2"/>
			<stop  offset="2.403846e-04" style="stop-color:#3EA0C2"/>
			<stop  offset="1" style="stop-color:#FFFFFF"/>
		</linearGradient>
		<path class="st157" d="M-216.56,442.32c181.89-22.79,375.16-14.02,553.79,26.99c111.23,25.56,231.05,62.67,335.39,16.51
			c76.37-33.79,127.96-106.07,196.85-153.28c48.3-33.05,101.41-51.9,157.27-59.59c128.24-17.88,270.47,23.68,393.66,77.65
			c25.83,11.32,51.78,23.18,77.81,35.1"/>
		<linearGradient id="SVGID_160_" gradientUnits="userSpaceOnUse" x1="-216.6185" y1="390.2024" x2="1502.2555" y2="390.2024">
			<stop  offset="0" style="stop-color:#3EA0C2"/>
			<stop  offset="2.403846e-04" style="stop-color:#3EA0C2"/>
			<stop  offset="1" style="stop-color:#FFFFFF"/>
		</linearGradient>
		<path class="st158" d="M-216.56,444.55c182.28-22.87,376.05-14.18,555.1,26.76c111.45,25.5,231.54,62.53,336,16.14
			c76.46-33.96,128.08-106.49,197.23-153.62c48.5-33.01,101.87-51.63,157.93-59.07c128.66-17.25,271.11,24.89,394.42,79.19
			c25.86,11.39,51.84,23.3,77.93,35.26"/>
		<linearGradient id="SVGID_161_" gradientUnits="userSpaceOnUse" x1="-216.6185" y1="392.1596" x2="1506.0917" y2="392.1596">
			<stop  offset="0" style="stop-color:#3EA0C2"/>
			<stop  offset="2.403846e-04" style="stop-color:#3EA0C2"/>
			<stop  offset="1" style="stop-color:#FFFFFF"/>
		</linearGradient>
		<path class="st159" d="M-216.56,446.77c182.67-22.94,376.93-14.34,556.42,26.53c111.67,25.44,232.02,62.39,336.61,15.76
			c76.56-34.14,128.21-106.92,197.6-153.96c48.69-32.97,102.32-51.37,158.6-58.55c129.07-16.63,271.76,26.11,395.18,80.73
			c25.89,11.46,51.9,23.43,78.04,35.43"/>
		<linearGradient id="SVGID_162_" gradientUnits="userSpaceOnUse" x1="-216.6186" y1="394.1102" x2="1509.9277" y2="394.1102">
			<stop  offset="0" style="stop-color:#3EA0C2"/>
			<stop  offset="2.403846e-04" style="stop-color:#3EA0C2"/>
			<stop  offset="1" style="stop-color:#FFFFFF"/>
		</linearGradient>
		<path class="st160" d="M-216.56,449c183.06-23.01,377.82-14.49,557.73,26.31c111.89,25.39,232.51,62.25,337.22,15.39
			c76.66-34.31,128.33-107.34,197.97-154.3c48.89-32.94,102.78-51.1,159.27-58.03c129.49-16,272.41,27.33,395.94,82.26
			c25.91,11.53,51.97,23.55,78.15,35.6"/>
		<linearGradient id="SVGID_163_" gradientUnits="userSpaceOnUse" x1="-216.6187" y1="396.0543" x2="1513.7639" y2="396.0543">
			<stop  offset="0" style="stop-color:#3EA0C2"/>
			<stop  offset="2.403846e-04" style="stop-color:#3EA0C2"/>
			<stop  offset="1" style="stop-color:#FFFFFF"/>
		</linearGradient>
		<path class="st161" d="M-216.56,451.23c183.45-23.09,378.71-14.65,559.05,26.08c112.11,25.33,233,62.11,337.83,15.02
			c76.76-34.49,128.45-107.77,198.35-154.64c49.09-32.9,103.23-50.83,159.93-57.51c129.9-15.38,273.06,28.54,396.7,83.8
			c25.94,11.59,52.03,23.68,78.26,35.77"/>
		<linearGradient id="SVGID_164_" gradientUnits="userSpaceOnUse" x1="-216.6187" y1="397.9625" x2="1517.6001" y2="397.9625">
			<stop  offset="0" style="stop-color:#3EA0C2"/>
			<stop  offset="2.403846e-04" style="stop-color:#3EA0C2"/>
			<stop  offset="1" style="stop-color:#FFFFFF"/>
		</linearGradient>
		<path class="st162" d="M-216.56,453.42c183.84-23.16,379.59-14.81,560.36,25.85c112.33,25.27,233.48,61.97,338.44,14.65
			c76.85-34.66,128.58-108.2,198.72-154.97c49.28-32.86,103.69-50.57,160.6-56.99c130.32-14.75,273.7,29.76,397.46,85.33
			c25.97,11.66,52.09,23.8,78.37,35.93"/>
		<linearGradient id="SVGID_165_" gradientUnits="userSpaceOnUse" x1="-216.6188" y1="399.9239" x2="1442.9523" y2="399.9239">
			<stop  offset="2.403846e-04" style="stop-color:#3EA0C2"/>
			<stop  offset="1" style="stop-color:#FFFFFF"/>
		</linearGradient>
		<path class="st163" d="M-216.56,455.67c184.23-23.23,380.48-14.97,561.68,25.63c112.55,25.21,233.97,61.83,339.04,14.27
			c76.95-34.83,128.7-108.62,199.09-155.31c162.73-107.95,381.49-49.92,559.49,30.4"/>
	</g>
</g>
</svg>
